<svg xmlns="http://www.w3.org/2000/svg" viewBox="0 0 23.99 22.67"><defs><style>.cls-1{fill:#191919;}</style></defs><title>plusblack_1</title><g id="Layer_2" data-name="Layer 2"><g id="Layer_1-2" data-name="Layer 1"><path class="cls-1" d="M22.79,12.79H20.88L22.41,6.9l.19-.74A1.76,1.76,0,0,0,21.37,4h0L6.15.06A1.72,1.72,0,0,0,5.71,0a1.76,1.76,0,0,0-.9.24A1.78,1.78,0,0,0,4,1.32L.06,16.52a1.76,1.76,0,0,0,1.27,2.15L16.5,22.62a1.61,1.61,0,0,0,.44.05,1.77,1.77,0,0,0,1.71-1.32l.23-.89h.34a1.19,1.19,0,0,0,1.17-1.18v-2.4h2.4A1.19,1.19,0,0,0,24,15.72V14a1.19,1.19,0,0,0-1.15-1.21ZM17,20.91,1.78,17,5.71,1.77l15.18,4-1,3.73a1.21,1.21,0,0,0-.7-.24H17.48a1.18,1.18,0,0,0-1.18,1.18h0v2.4H13.9A1.18,1.18,0,0,0,12.72,14v1.7a1.18,1.18,0,0,0,1.18,1.18h2.4v2.4a1.16,1.16,0,0,0,.78,1.1Zm5.8-5.21H19.67c-.43,0-.45.46-.45.46h0v3.13H17.48V16.15h0a.45.45,0,0,0-.46-.46H13.9V14H17c.43,0,.46-.46.46-.46h0V10.39h1.74v3.13h0a.45.45,0,0,0,.45.46h3.15Z"/><rect class="cls-1" x="9.72" y="9.76" width="3.16" height="3.16" transform="translate(-2.51 19.44) rotate(-75.49)"/></g></g></svg>