<svg xmlns="http://www.w3.org/2000/svg" viewBox="0 0 23.98 22.72"><defs><style>.cls-1{fill:#bdbebe;}</style></defs><title>plusgrey</title><g id="Layer_2" data-name="Layer 2"><g id="Layer_1-2" data-name="Layer 1"><path class="cls-1" d="M22.78,12.84H20.87L22.4,7l.19-.74a1.75,1.75,0,0,0-1.26-2.15L6.14.06A1.61,1.61,0,0,0,5.7,0a1.76,1.76,0,0,0-.9.24A1.82,1.82,0,0,0,4,1.37L.05,16.57A1.77,1.77,0,0,0,1.32,18.7l15.17,4a1.35,1.35,0,0,0,.49,0,1.76,1.76,0,0,0,1.71-1.32l.23-.89h.34a1.18,1.18,0,0,0,1.17-1.18v-2.4h2.4A1.19,1.19,0,0,0,24,15.75V14a1.18,1.18,0,0,0-1.18-1.18ZM17,21,1.82,17,5.75,1.77l15.13,4-1,3.73a1.18,1.18,0,0,0-.7-.24H17.47a1.18,1.18,0,0,0-1.18,1.18h0v2.4h-2.4A1.18,1.18,0,0,0,12.71,14h0v1.73a1.18,1.18,0,0,0,1.18,1.18h2.4v2.4a1.16,1.16,0,0,0,.78,1.1Zm5.85-5.21H19.66a.46.46,0,0,0-.45.45h0v3.13H17.47V16.2h0a.47.47,0,0,0-.46-.45H13.89V14H17c.43,0,.46-.46.46-.46h0V10.44h1.74v3.13h0a.45.45,0,0,0,.45.46h3.15Z"/><rect class="cls-1" x="9.72" y="9.82" width="3.16" height="3.16" transform="translate(-2.56 19.49) rotate(-75.49)"/></g></g></svg>