<?xml version="1.0" encoding="utf-8"?>
<!-- Generator: Adobe Illustrator 21.0.2, SVG Export Plug-In . SVG Version: 6.00 Build 0)  -->
<svg version="1.1" id="Generic" xmlns="http://www.w3.org/2000/svg" xmlns:xlink="http://www.w3.org/1999/xlink" x="0px" y="0px"
	 width="56px" height="1848px" viewBox="0 0 56 1848" style="enable-background:new 0 0 56 1848;" xml:space="preserve" preserveAspectRatio="none">
<style type="text/css">
	.st0{fill:#FFFFFF;}
	.st1{fill:#191919;}
	.st2{fill:#191919;stroke:#191919;stroke-width:2;stroke-linecap:round;stroke-linejoin:round;stroke-miterlimit:10;}
	.st3{fill:none;stroke:#191919;stroke-width:2;stroke-linecap:round;stroke-linejoin:round;stroke-miterlimit:10;}
	.st4{fill:none;stroke:#191919;stroke-width:2;stroke-miterlimit:10;}
	.st5{fill:none;stroke:#00A2FF;stroke-width:2;stroke-linecap:round;stroke-linejoin:round;stroke-miterlimit:10;}
	.st6{fill:none;stroke:#00A2FF;stroke-width:4;stroke-linecap:round;stroke-linejoin:round;stroke-miterlimit:10;}
	.st7{fill:#B8B8B8;}
	.st8{fill:none;stroke:#B8B8B8;stroke-width:3;stroke-linecap:round;stroke-linejoin:round;stroke-miterlimit:10;}
	.st9{fill:#E2231A;}
	.st10{fill:none;stroke:#FFFFFF;stroke-width:2;stroke-linecap:round;stroke-linejoin:round;stroke-miterlimit:10;}
	.st11{fill:none;stroke:#B8B8B8;stroke-width:4;stroke-linecap:round;stroke-linejoin:round;stroke-miterlimit:10;}
	.st12{fill:none;stroke:#FFFFFF;stroke-width:4;stroke-linecap:round;stroke-linejoin:round;stroke-miterlimit:10;}
	.st13{fill:none;stroke:#B8B8B8;stroke-width:2;stroke-linecap:round;stroke-linejoin:round;stroke-miterlimit:10;}
	.st14{fill:#D86868;}
	.st15{fill:#00B259;}
	.st16{fill:#00A2FF;}
	.st17{fill:#FD8192;}
	.st18{fill:#CCCCCC;}
	.st19{fill:#66C7FF;}
	.st20{fill:#F6B702;}
	.st21{fill:#757575;}
	.st22{fill:#E3E3E3;}
</style>
<path id="global-on" class="st0" d="M42,1822c-6.6,0-12,5.4-12,12s5.4,12,12,12s12-5.4,12-12S48.6,1822,42,1822z M51.8,1835.8
	l-0.8-0.4v-0.8l1-0.5C52,1834.7,51.9,1835.3,51.8,1835.8z M39.1,1824.4L39.1,1824.4l1,2c0.2,0.3,0.5,0.6,0.9,0.6h3
	c0.3,0,0.5-0.1,0.7-0.3l1.7-1.7c0.2,0.1,0.3,0.2,0.5,0.3l-0.9,3.5c0,0.1,0,0.2,0,0.2v2.6l-2.5,2.5l-4.7,0.9c-0.5,0.1-0.8,0.5-0.8,1
	v2.6l-3.1-3.1l-1.9-4.8c-0.1-0.1-0.1-0.2-0.2-0.3C33.8,1827.5,36.2,1825.3,39.1,1824.4z M41,1843.9v-1.5l1.2-1.2l1.4,0.7
	c0.1,0,0.2,0.1,0.3,0.1l3.2,0.6c-1.5,0.9-3.2,1.4-5,1.4C41.7,1844,41.3,1844,41,1843.9z"/>
<g id="global_3_">
	<path class="st1" d="M14,1846c-6.6,0-12-5.4-12-12s5.4-12,12-12s12,5.4,12,12S20.6,1846,14,1846z M14,1824c-5.5,0-10,4.5-10,10
		s4.5,10,10,10s10-4.5,10-10S19.5,1824,14,1824z"/>
	<path class="st1" d="M10,1841c-0.3,0-0.5-0.1-0.7-0.3l-4-4c-0.1-0.1-0.2-0.2-0.2-0.3l-2-5c-0.2-0.5,0-1.1,0.6-1.3
		c0.5-0.2,1.1,0,1.3,0.6l1.9,4.8l3.1,3.1v-2.6c0-0.5,0.3-0.9,0.8-1l4.7-0.9l2.5-2.5v-2.6c0-0.1,0-0.2,0-0.2l1-4
		c0.1-0.5,0.7-0.9,1.2-0.7c0.5,0.1,0.9,0.7,0.7,1.2l-1,3.9v2.9c0,0.3-0.1,0.5-0.3,0.7l-3,3c-0.1,0.1-0.3,0.2-0.5,0.3l-4.2,0.8v2.2
		c0,0.3-0.1,0.5-0.3,0.7l-1,1C10.5,1840.9,10.3,1841,10,1841z"/>
	<path class="st1" d="M16,1827h-3c-0.4,0-0.7-0.2-0.9-0.6l-1-2c-0.2-0.5,0-1.1,0.4-1.3c0.5-0.2,1.1,0,1.3,0.4l0.7,1.4h2l1.7-1.7
		c0.4-0.4,1-0.4,1.4,0s0.4,1,0,1.4l-2,2C16.5,1826.9,16.3,1827,16,1827z"/>
	<path class="st1" d="M12,1845c-0.6,0-1-0.4-1-1v-2c0-0.3,0.1-0.5,0.3-0.7l2-2c0.3-0.3,0.8-0.4,1.2-0.2l1.9,0.9l4.9,1
		c0.5,0.1,0.9,0.6,0.8,1.2c-0.1,0.5-0.6,0.9-1.2,0.8l-5-1c-0.1,0-0.2,0-0.3-0.1l-1.4-0.7l-1.2,1.2v1.6C13,1844.6,12.6,1845,12,1845z
		"/>
	<path class="st1" d="M24,1838c-0.1,0-0.3,0-0.4-0.1l-2-1c-0.3-0.2-0.6-0.5-0.6-0.9v-2c0-0.4,0.2-0.7,0.6-0.9l2-1
		c0.5-0.2,1.1,0,1.3,0.4s0,1.1-0.4,1.3l-1.4,0.7v0.8l1.4,0.7c0.5,0.2,0.7,0.8,0.4,1.3C24.7,1837.8,24.4,1838,24,1838z"/>
</g>
<g id="close-white_1_">
	<g id="XMLID_91_">
		<path id="XMLID_94_" class="st0" d="M7,1758c-0.3,0-0.5-0.1-0.7-0.3c-0.4-0.4-0.4-1,0-1.4l14-14c0.4-0.4,1-0.4,1.4,0s0.4,1,0,1.4
			l-14,14C7.5,1757.9,7.3,1758,7,1758z"/>
	</g>
	<g id="XMLID_17_">
		<path id="XMLID_23_" class="st0" d="M21,1758c-0.3,0-0.5-0.1-0.7-0.3l-14-14c-0.4-0.4-0.4-1,0-1.4s1-0.4,1.4,0l14,14
			c0.4,0.4,0.4,1,0,1.4C21.5,1757.9,21.3,1758,21,1758z"/>
	</g>
</g>
<rect id="stop-on" x="33" y="1713" class="st2" width="18" height="18"/>
<rect id="stop" x="5" y="1713" class="st3" width="18" height="18"/>
<polygon id="play2-on" class="st2" points="35,1685 51,1694 35,1703 "/>
<polygon id="play2" class="st3" points="7,1685 23,1694 7,1703 "/>
<g id="unlock">
	<rect x="11" y="1665" class="st3" width="14" height="12"/>
	<circle class="st3" cx="18" cy="1670" r="2"/>
	<line class="st3" x1="18" y1="1672" x2="18" y2="1674"/>
	<path class="st3" d="M3,1665v-5c0-2.8,2.2-5,5-5s5,2.2,5,5v5"/>
</g>
<g id="lock">
	<rect x="7" y="1637" class="st3" width="14" height="12"/>
	<circle class="st3" cx="14" cy="1642" r="2"/>
	<line class="st3" x1="14" y1="1644" x2="14" y2="1646"/>
	<path class="st3" d="M9,1637v-5c0-2.8,2.2-5,5-5s5,2.2,5,5v5"/>
</g>
<g id="copy-on">
	<g>
		<path class="st4" d="M37,1603.1v-3.8c0-0.2,0.1-0.3,0.3-0.3h11.6c0.1,0,0.2,0,0.2,0.1l3.8,4c0.1,0.1,0.1,0.1,0.1,0.2v13.4
			c0,0.2-0.1,0.3-0.3,0.3H47"/>
		<path class="st4" d="M48,1600v3.7c0,0.2,0.1,0.3,0.3,0.3H52"/>
	</g>
	<path class="st1" d="M47.6,1606.4l-3.7-3.9c-0.2-0.3-0.5-0.5-1-0.5H31.3c-0.8,0-1.3,0.6-1.3,1.3v17.4c0,0.8,0.5,1.3,1.3,1.3h15.4
		c0.8,0,1.3-0.6,1.3-1.3v-13.4C48,1606.9,47.8,1606.6,47.6,1606.4z M34,1608h6c0.5,0,1,0.5,1,1s-0.5,1-1,1h-6c-0.5,0-1-0.5-1-1
		S33.4,1608,34,1608z M44,1618H34c-0.5,0-1-0.5-1-1s0.5-1,1-1h10c0.5,0,1,0.5,1,1S44.5,1618,44,1618z M44,1614H34c-0.5,0-1-0.4-1-1
		s0.5-1,1-1h10c0.5,0,1,0.4,1,1S44.5,1614,44,1614z M43,1607v-3l3,3H43z"/>
</g>
<g id="copy">
	<line id="minus_2_" class="st3" x1="6" y1="1613" x2="16" y2="1613"/>
	<line id="minus_8_" class="st3" x1="6" y1="1609" x2="11" y2="1609"/>
	<line id="minus_1_" class="st3" x1="6" y1="1617" x2="16" y2="1617"/>
	<path class="st4" d="M3.3,1603h11.6c0.1,0,0.2,0,0.2,0.1l3.8,4c0.1,0.1,0.1,0.1,0.1,0.2v13.4c0,0.2-0.1,0.3-0.3,0.3H3.3
		c-0.2,0-0.3-0.1-0.3-0.3v-17.4C3,1603.1,3.1,1603,3.3,1603z"/>
	<path class="st4" d="M14,1604v3.7c0,0.2,0.1,0.3,0.3,0.3H18"/>
	<g>
		<path class="st4" d="M9,1603.1v-3.8c0-0.2,0.1-0.3,0.3-0.3h11.6c0.1,0,0.2,0,0.2,0.1l3.8,4c0.1,0.1,0.1,0.1,0.1,0.2v13.4
			c0,0.2-0.1,0.3-0.3,0.3H19"/>
		<path class="st4" d="M20,1600v3.7c0,0.2,0.1,0.3,0.3,0.3H24"/>
	</g>
</g>
<line id="minus-on" class="st5" x1="32" y1="1582" x2="52" y2="1582"/>
<line id="minus" class="st3" x1="4" y1="1582" x2="24" y2="1582"/>
<g id="plus-on">
	<line class="st5" x1="32" y1="1554" x2="52" y2="1554"/>
	<line class="st5" x1="42" y1="1544" x2="42" y2="1564"/>
</g>
<g id="plus">
	<line class="st3" x1="4" y1="1554" x2="24" y2="1554"/>
	<line class="st3" x1="14" y1="1544" x2="14" y2="1564"/>
</g>
<polyline id="checkmark-blue-thick" class="st6" points="33,1526 39,1532 51,1520 "/>
<polyline id="checkmark-blue" class="st5" points="5,1526 11,1532 23,1520 "/>
<g id="menu-black">
	<g id="XMLID_14_">
		<path id="XMLID_15_" class="st1" d="M22,1494H6c-0.6,0-1-0.4-1-1s0.4-1,1-1h16c0.6,0,1,0.4,1,1S22.6,1494,22,1494z"/>
	</g>
	<g id="XMLID_9_">
		<path id="XMLID_10_" class="st1" d="M22,1499H6c-0.6,0-1-0.4-1-1s0.4-1,1-1h16c0.6,0,1,0.4,1,1S22.6,1499,22,1499z"/>
	</g>
	<g id="XMLID_6_">
		<path id="XMLID_8_" class="st1" d="M22,1504H6c-0.6,0-1-0.4-1-1s0.4-1,1-1h16c0.6,0,1,0.4,1,1S22.6,1504,22,1504z"/>
	</g>
</g>
<g id="clear-on">
	<path class="st7" d="M41.1,1458c-6.6,0-12,5.4-12,12s5.4,12,12,12s12-5.4,12-12S47.7,1458,41.1,1458z M45.6,1472.5
		c0.6,0.6,0.6,1.5,0,2.1c-0.3,0.3-0.7,0.4-1.1,0.4s-0.8-0.1-1.1-0.4l-2.5-2.5l-2.5,2.5c-0.3,0.3-0.7,0.4-1.1,0.4s-0.8-0.1-1.1-0.4
		c-0.6-0.6-0.6-1.5,0-2.1l2.5-2.5l-2.5-2.5c-0.6-0.6-0.6-1.5,0-2.1s1.5-0.6,2.1,0l2.5,2.5l2.5-2.5c0.6-0.6,1.5-0.6,2.1,0
		s0.6,1.5,0,2.1l-2.5,2.5L45.6,1472.5z"/>
</g>
<g id="clear">
	<g>
		<path class="st7" d="M13.1,1461c5,0,9,4,9,9s-4,9-9,9s-9-4-9-9S8.1,1461,13.1,1461 M13.1,1458c-6.6,0-12,5.4-12,12s5.4,12,12,12
			s12-5.4,12-12S19.7,1458,13.1,1458L13.1,1458z"/>
	</g>
	<line class="st8" x1="9.6" y1="1466.5" x2="16.6" y2="1473.5"/>
	<line class="st8" x1="9.6" y1="1473.5" x2="16.6" y2="1466.5"/>
</g>
<g id="alarmclock-red">
	<g id="XMLID_362_">
		<path id="XMLID_363_" class="st9" d="M14,1453c-5.5,0-10-4.5-10-10s4.5-10,10-10s10,4.5,10,10S19.5,1453,14,1453z M14,1435
			c-4.4,0-8,3.6-8,8s3.6,8,8,8s8-3.6,8-8S18.4,1435,14,1435z"/>
	</g>
	<g id="XMLID_240_">
		<g id="XMLID_360_">
			<path id="XMLID_361_" class="st9" d="M23.2,1436.3c-0.3,0-0.6-0.1-0.8-0.4c-1.2-1.5-2.8-2.6-4.7-3.3c-0.5-0.2-0.8-0.8-0.6-1.3
				c0.2-0.5,0.8-0.8,1.3-0.6c2.1,0.8,4.1,2.1,5.5,3.9c0.4,0.4,0.3,1.1-0.1,1.4C23.6,1436.2,23.4,1436.3,23.2,1436.3z"/>
		</g>
		<g id="XMLID_241_">
			<path id="XMLID_359_" class="st9" d="M4.8,1436.3c-0.2,0-0.5-0.1-0.6-0.2c-0.4-0.4-0.5-1-0.1-1.4c1.5-1.7,3.4-3.1,5.5-3.9
				c0.5-0.2,1.1,0.1,1.3,0.6s-0.1,1.1-0.6,1.3c-1.8,0.7-3.4,1.8-4.7,3.3C5.4,1436.2,5.1,1436.3,4.8,1436.3z"/>
		</g>
	</g>
	<g id="XMLID_237_">
		<path id="XMLID_238_" class="st9" d="M17,1447c-0.3,0-0.5-0.1-0.7-0.3l-3-3c-0.2-0.2-0.3-0.4-0.3-0.7v-6c0-0.6,0.4-1,1-1
			s1,0.4,1,1v5.6l2.7,2.7c0.4,0.4,0.4,1,0,1.4C17.5,1446.9,17.3,1447,17,1447z"/>
	</g>
</g>
<g id="notification-on_1_">
	<path class="st0" d="M48,1290H36c-3.3,0-6,2.7-6,6v12c0,3.3,2.7,6,6,6h12c3.3,0,6-2.7,6-6v-12C54,1292.7,51.3,1290,48,1290z
		 M49,1309H35c-0.6,0-1-0.4-1-1s0.4-1,1-1h14c0.6,0,1,0.4,1,1S49.6,1309,49,1309z M49,1305H35c-0.6,0-1-0.4-1-1s0.4-1,1-1h14
		c0.6,0,1,0.4,1,1S49.6,1305,49,1305z M49,1301H35c-0.6,0-1-0.4-1-1s0.4-1,1-1h14c0.6,0,1,0.4,1,1S49.6,1301,49,1301z M49,1297H35
		c-0.6,0-1-0.4-1-1s0.4-1,1-1h14c0.6,0,1,0.4,1,1S49.6,1297,49,1297z"/>
</g>
<g id="notification_1_">
	<path class="st10" d="M20,1313H8c-2.8,0-5-2.2-5-5v-12c0-2.8,2.2-5,5-5h12c2.8,0,5,2.2,5,5v12C25,1310.8,22.8,1313,20,1313z"/>
	<line class="st10" x1="7" y1="1300" x2="21" y2="1300"/>
	<line class="st10" x1="7" y1="1304" x2="21" y2="1304"/>
	<line class="st10" x1="7" y1="1308" x2="21" y2="1308"/>
	<line class="st10" x1="7" y1="1296" x2="21" y2="1296"/>
</g>
<g id="sandglass-white">
	<polygon class="st10" points="35,1263 49,1263 49,1270 45,1274 49,1278 49,1285 35,1285 35,1278 39,1274 35,1270 	"/>
	<polygon class="st10" points="38,1282 38,1280 42,1277 46,1280 46,1282 	"/>
	<polygon class="st10" points="46,1268 46,1269 42,1272 38,1269 38,1268 	"/>
</g>
<g id="sandglass">
	<polygon class="st3" points="7,1263 21,1263 21,1270 17,1274 21,1278 21,1285 7,1285 7,1278 11,1274 7,1270 	"/>
	<polygon class="st3" points="10,1282 10,1280 14,1277 18,1280 18,1282 	"/>
	<polygon class="st3" points="18,1268 18,1269 14,1272 10,1269 10,1268 	"/>
</g>
<g id="close-white">
	<g id="XMLID_3_">
		<path id="XMLID_4_" class="st0" d="M7,1254c-0.3,0-0.5-0.1-0.7-0.3c-0.4-0.4-0.4-1,0-1.4l14-14c0.4-0.4,1-0.4,1.4,0s0.4,1,0,1.4
			l-14,14C7.5,1253.9,7.3,1254,7,1254z"/>
	</g>
	<g id="XMLID_1_">
		<path id="XMLID_2_" class="st0" d="M21,1254c-0.3,0-0.5-0.1-0.7-0.3l-14-14c-0.4-0.4-0.4-1,0-1.4s1-0.4,1.4,0l14,14
			c0.4,0.4,0.4,1,0,1.4C21.5,1253.9,21.3,1254,21,1254z"/>
	</g>
</g>
<polyline id="checkmark-gray-thick" class="st11" points="33,1218 39,1224 51,1212 "/>
<polyline id="checkmark-white-thick" class="st12" points="5,1218 11,1224 23,1212 "/>
<polyline id="checkmark-gray" class="st13" points="33,1190 39,1196 51,1184 "/>
<polyline id="checkmark-white" class="st10" points="5,1190 11,1196 23,1184 "/>
<g id="first-white">
	<polyline class="st10" points="48,1170 40,1162 48,1154 	"/>
	<line class="st10" x1="36" y1="1170" x2="36" y2="1154"/>
</g>
<g id="first">
	<polyline class="st3" points="20,1170 12,1162 20,1154 	"/>
	<line class="st3" x1="8" y1="1170" x2="8" y2="1154"/>
</g>
<g id="last-white">
	<polyline class="st10" points="36,1126 44,1134 36,1142 	"/>
	<line class="st10" x1="48" y1="1126" x2="48" y2="1142"/>
</g>
<g id="last">
	<polyline class="st3" points="8,1126 16,1134 8,1142 	"/>
	<line class="st3" x1="20" y1="1126" x2="20" y2="1142"/>
</g>
<g id="first_1_">
	<polyline class="st13" points="20,1422 12,1414 20,1406 	"/>
	<line class="st13" x1="8" y1="1422" x2="8" y2="1406"/>
</g>
<g id="last_1_">
	<polyline class="st13" points="8,1378 16,1386 8,1394 	"/>
	<line class="st13" x1="20" y1="1378" x2="20" y2="1394"/>
</g>
<g id="history-on">
	<path class="st3" d="M34.9,1113c-1.8-1.8-2.9-4.3-2.9-7c0-5.5,4.5-10,10-10s10,4.5,10,10s-4.5,10-10,10c-1,0-2.1-0.2-3-0.5"/>
	<polyline class="st3" points="42,1100.5 42,1106 45,1109.2 	"/>
	<polyline class="st3" points="36,1109 35,1113 31,1112 	"/>
</g>
<g id="history">
	<path class="st13" d="M6.9,1113c-1.8-1.8-2.9-4.3-2.9-7c0-5.5,4.5-10,10-10s10,4.5,10,10s-4.5,10-10,10c-1,0-2.1-0.2-3-0.5"/>
	<polyline class="st13" points="14,1100.5 14,1106 17,1109.2 	"/>
	<polyline class="st13" points="8,1109 7,1113 3,1112 	"/>
</g>
<g id="slideshow-w">
	<path id="XMLID_356_" class="st0" d="M53,1085H31c-0.6,0-1-0.4-1-1v-12c0-0.6,0.4-1,1-1h22c0.6,0,1,0.4,1,1v12
		C54,1084.6,53.6,1085,53,1085z M32,1083h20v-10H32V1083z"/>
</g>
<g id="slideshow">
	<path id="XMLID_353_" class="st1" d="M25,1085H3c-0.6,0-1-0.4-1-1v-12c0-0.6,0.4-1,1-1h22c0.6,0,1,0.4,1,1v12
		C26,1084.6,25.6,1085,25,1085z M4,1083h20v-10H4V1083z"/>
</g>
<g id="grid-w">
	<g id="XMLID_349_">
		<path id="XMLID_350_" class="st0" d="M35,1049h-4c-0.6,0-1-0.4-1-1v-4c0-0.6,0.4-1,1-1h4c0.6,0,1,0.4,1,1v4
			C36,1048.6,35.6,1049,35,1049z M32,1047h2v-2h-2V1047z"/>
	</g>
	<g id="XMLID_345_">
		<path id="XMLID_346_" class="st0" d="M53,1049h-4c-0.6,0-1-0.4-1-1v-4c0-0.6,0.4-1,1-1h4c0.6,0,1,0.4,1,1v4
			C54,1048.6,53.6,1049,53,1049z M50,1047h2v-2h-2V1047z"/>
	</g>
	<g id="XMLID_341_">
		<path id="XMLID_342_" class="st0" d="M44,1049h-4c-0.6,0-1-0.4-1-1v-4c0-0.6,0.4-1,1-1h4c0.6,0,1,0.4,1,1v4
			C45,1048.6,44.6,1049,44,1049z M41,1047h2v-2h-2V1047z"/>
	</g>
	<g id="XMLID_337_">
		<path id="XMLID_338_" class="st0" d="M35,1057h-4c-0.6,0-1-0.4-1-1v-4c0-0.6,0.4-1,1-1h4c0.6,0,1,0.4,1,1v4
			C36,1056.6,35.6,1057,35,1057z M32,1055h2v-2h-2V1055z"/>
	</g>
	<g id="XMLID_333_">
		<path id="XMLID_334_" class="st0" d="M53,1057h-4c-0.6,0-1-0.4-1-1v-4c0-0.6,0.4-1,1-1h4c0.6,0,1,0.4,1,1v4
			C54,1056.6,53.6,1057,53,1057z M50,1055h2v-2h-2V1055z"/>
	</g>
	<g id="XMLID_329_">
		<path id="XMLID_330_" class="st0" d="M44,1057h-4c-0.6,0-1-0.4-1-1v-4c0-0.6,0.4-1,1-1h4c0.6,0,1,0.4,1,1v4
			C45,1056.6,44.6,1057,44,1057z M41,1055h2v-2h-2V1055z"/>
	</g>
</g>
<g id="grid">
	<g id="XMLID_325_">
		<path id="XMLID_326_" class="st1" d="M7,1049H3c-0.6,0-1-0.4-1-1v-4c0-0.6,0.4-1,1-1h4c0.6,0,1,0.4,1,1v4
			C8,1048.6,7.6,1049,7,1049z M4,1047h2v-2H4V1047z"/>
	</g>
	<g id="XMLID_321_">
		<path id="XMLID_322_" class="st1" d="M25,1049h-4c-0.6,0-1-0.4-1-1v-4c0-0.6,0.4-1,1-1h4c0.6,0,1,0.4,1,1v4
			C26,1048.6,25.6,1049,25,1049z M22,1047h2v-2h-2V1047z"/>
	</g>
	<g id="XMLID_317_">
		<path id="XMLID_318_" class="st1" d="M16,1049h-4c-0.6,0-1-0.4-1-1v-4c0-0.6,0.4-1,1-1h4c0.6,0,1,0.4,1,1v4
			C17,1048.6,16.6,1049,16,1049z M13,1047h2v-2h-2V1047z"/>
	</g>
	<g id="XMLID_313_">
		<path id="XMLID_314_" class="st1" d="M7,1057H3c-0.6,0-1-0.4-1-1v-4c0-0.6,0.4-1,1-1h4c0.6,0,1,0.4,1,1v4
			C8,1056.6,7.6,1057,7,1057z M4,1055h2v-2H4V1055z"/>
	</g>
	<g id="XMLID_309_">
		<path id="XMLID_310_" class="st1" d="M25,1057h-4c-0.6,0-1-0.4-1-1v-4c0-0.6,0.4-1,1-1h4c0.6,0,1,0.4,1,1v4
			C26,1056.6,25.6,1057,25,1057z M22,1055h2v-2h-2V1055z"/>
	</g>
	<g id="XMLID_305_">
		<path id="XMLID_306_" class="st1" d="M16,1057h-4c-0.6,0-1-0.4-1-1v-4c0-0.6,0.4-1,1-1h4c0.6,0,1,0.4,1,1v4
			C17,1056.6,16.6,1057,16,1057z M13,1055h2v-2h-2V1055z"/>
	</g>
</g>
<g id="alarmclock">
	<g id="XMLID_301_">
		<path id="XMLID_302_" class="st1" d="M14,1033c-5.5,0-10-4.5-10-10s4.5-10,10-10s10,4.5,10,10S19.5,1033,14,1033z M14,1015
			c-4.4,0-8,3.6-8,8s3.6,8,8,8s8-3.6,8-8S18.4,1015,14,1015z"/>
	</g>
	<g id="XMLID_296_">
		<g id="XMLID_299_">
			<path id="XMLID_300_" class="st1" d="M23.2,1016.3c-0.3,0-0.6-0.1-0.8-0.4c-1.2-1.5-2.8-2.6-4.7-3.3c-0.5-0.2-0.8-0.8-0.6-1.3
				c0.2-0.5,0.8-0.8,1.3-0.6c2.1,0.8,4.1,2.1,5.5,3.9c0.4,0.4,0.3,1.1-0.1,1.4C23.6,1016.2,23.4,1016.3,23.2,1016.3z"/>
		</g>
		<g id="XMLID_297_">
			<path id="XMLID_298_" class="st1" d="M4.8,1016.3c-0.2,0-0.5-0.1-0.6-0.2c-0.4-0.4-0.5-1-0.1-1.4c1.5-1.7,3.4-3.1,5.5-3.9
				c0.5-0.2,1.1,0.1,1.3,0.6s-0.1,1.1-0.6,1.3c-1.8,0.7-3.4,1.8-4.7,3.3C5.4,1016.2,5.1,1016.3,4.8,1016.3z"/>
		</g>
	</g>
	<g id="XMLID_294_">
		<path id="XMLID_295_" class="st1" d="M17,1027c-0.3,0-0.5-0.1-0.7-0.3l-3-3c-0.2-0.2-0.3-0.4-0.3-0.7v-6c0-0.6,0.4-1,1-1
			s1,0.4,1,1v5.6l2.7,2.7c0.4,0.4,0.4,1,0,1.4C17.5,1026.9,17.3,1027,17,1027z"/>
	</g>
</g>
<g id="alarmclock_1_">
	<g id="XMLID_290_">
		<path id="XMLID_291_" class="st0" d="M42,1033c-5.5,0-10-4.5-10-10s4.5-10,10-10s10,4.5,10,10S47.5,1033,42,1033z M42,1015
			c-4.4,0-8,3.6-8,8s3.6,8,8,8s8-3.6,8-8S46.4,1015,42,1015z"/>
	</g>
	<g id="XMLID_285_">
		<g id="XMLID_288_">
			<path id="XMLID_289_" class="st0" d="M51.2,1016.3c-0.3,0-0.6-0.1-0.8-0.4c-1.2-1.5-2.8-2.6-4.7-3.3c-0.5-0.2-0.8-0.8-0.6-1.3
				s0.8-0.8,1.3-0.6c2.1,0.8,4.1,2.1,5.5,3.9c0.4,0.4,0.3,1.1-0.1,1.4C51.6,1016.2,51.4,1016.3,51.2,1016.3z"/>
		</g>
		<g id="XMLID_286_">
			<path id="XMLID_287_" class="st0" d="M32.8,1016.3c-0.2,0-0.5-0.1-0.6-0.2c-0.4-0.4-0.5-1-0.1-1.4c1.5-1.7,3.4-3.1,5.5-3.9
				c0.5-0.2,1.1,0.1,1.3,0.6s-0.1,1.1-0.6,1.3c-1.8,0.7-3.4,1.8-4.7,3.3C33.4,1016.2,33.1,1016.3,32.8,1016.3z"/>
		</g>
	</g>
	<g id="XMLID_283_">
		<path id="XMLID_284_" class="st0" d="M45,1027c-0.3,0-0.5-0.1-0.7-0.3l-3-3c-0.2-0.2-0.3-0.4-0.3-0.7v-6c0-0.6,0.4-1,1-1
			s1,0.4,1,1v5.6l2.7,2.7c0.4,0.4,0.4,1,0,1.4C45.5,1026.9,45.3,1027,45,1027z"/>
	</g>
</g>
<g id="close-small-on">
	<g id="XMLID_281_">
		<path id="XMLID_282_" class="st14" d="M36,889c-0.3,0-0.5-0.1-0.7-0.3c-0.4-0.4-0.4-1,0-1.4l12-12c0.4-0.4,1-0.4,1.4,0
			s0.4,1,0,1.4l-12,12C36.5,888.9,36.3,889,36,889z"/>
	</g>
	<g id="XMLID_279_">
		<path id="XMLID_280_" class="st14" d="M48,889c-0.3,0-0.5-0.1-0.7-0.3l-12-12c-0.4-0.4-0.4-1,0-1.4s1-0.4,1.4,0l12,12
			c0.4,0.4,0.4,1,0,1.4C48.5,888.9,48.3,889,48,889z"/>
	</g>
</g>
<g id="close-small">
	<g id="XMLID_277_">
		<path id="XMLID_278_" class="st1" d="M8,889c-0.3,0-0.5-0.1-0.7-0.3c-0.4-0.4-0.4-1,0-1.4l12-12c0.4-0.4,1-0.4,1.4,0s0.4,1,0,1.4
			l-12,12C8.5,888.9,8.3,889,8,889z"/>
	</g>
	<g id="XMLID_275_">
		<path id="XMLID_276_" class="st1" d="M20,889c-0.3,0-0.5-0.1-0.7-0.3l-12-12c-0.4-0.4-0.4-1,0-1.4s1-0.4,1.4,0l12,12
			c0.4,0.4,0.4,1,0,1.4C20.5,888.9,20.3,889,20,889z"/>
	</g>
</g>
<g id="checkmark-small-on">
	<path id="XMLID_274_" class="st15" d="M40,859c-0.3,0-0.5-0.1-0.7-0.3l-5-5c-0.4-0.4-0.4-1,0-1.4s1-0.4,1.4,0l4.3,4.3l8.3-8.3
		c0.4-0.4,1-0.4,1.4,0s0.4,1,0,1.4l-9,9C40.5,858.9,40.3,859,40,859z"/>
</g>
<g id="checkmark-small">
	<path id="XMLID_273_" class="st1" d="M12,859c-0.3,0-0.5-0.1-0.7-0.3l-5-5c-0.4-0.4-0.4-1,0-1.4s1-0.4,1.4,0l4.3,4.3l8.3-8.3
		c0.4-0.4,1-0.4,1.4,0s0.4,1,0,1.4l-9,9C12.5,858.9,12.3,859,12,859z"/>
</g>
<g id="down-small-on">
	<path id="XMLID_272_" class="st0" d="M42,831c-0.3,0-0.5-0.1-0.7-0.3l-7-7c-0.4-0.4-0.4-1,0-1.4s1-0.4,1.4,0l6.3,6.3l6.3-6.3
		c0.4-0.4,1-0.4,1.4,0s0.4,1,0,1.4l-7,7C42.5,830.9,42.3,831,42,831z"/>
</g>
<g id="down-small">
	<path id="XMLID_271_" class="st1" d="M14,831c-0.3,0-0.5-0.1-0.7-0.3l-7-7c-0.4-0.4-0.4-1,0-1.4s1-0.4,1.4,0l6.3,6.3l6.3-6.3
		c0.4-0.4,1-0.4,1.4,0s0.4,1,0,1.4l-7,7C14.5,830.9,14.3,831,14,831z"/>
</g>
<g id="up-small-on">
	<path id="XMLID_270_" class="st0" d="M49,802c-0.3,0-0.5-0.1-0.7-0.3l-6.3-6.3l-6.3,6.3c-0.4,0.4-1,0.4-1.4,0s-0.4-1,0-1.4l7-7
		c0.4-0.4,1-0.4,1.4,0l7,7c0.4,0.4,0.4,1,0,1.4C49.5,801.9,49.3,802,49,802z"/>
</g>
<g id="up-small">
	<path id="XMLID_269_" class="st1" d="M21,802c-0.3,0-0.5-0.1-0.7-0.3l-6.3-6.3l-6.3,6.3c-0.4,0.4-1,0.4-1.4,0s-0.4-1,0-1.4l7-7
		c0.4-0.4,1-0.4,1.4,0l7,7c0.4,0.4,0.4,1,0,1.4C21.5,801.9,21.3,802,21,802z"/>
</g>
<g id="left-small-on">
	<path id="XMLID_268_" class="st0" d="M45,778c-0.3,0-0.5-0.1-0.7-0.3l-7-7c-0.4-0.4-0.4-1,0-1.4l7-7c0.4-0.4,1-0.4,1.4,0
		s0.4,1,0,1.4l-6.3,6.3l6.3,6.3c0.4,0.4,0.4,1,0,1.4C45.5,777.9,45.3,778,45,778z"/>
</g>
<g id="left-small">
	<path id="XMLID_267_" class="st1" d="M17,778c-0.3,0-0.5-0.1-0.7-0.3l-7-7c-0.4-0.4-0.4-1,0-1.4l7-7c0.4-0.4,1-0.4,1.4,0
		s0.4,1,0,1.4l-6.3,6.3l6.3,6.3c0.4,0.4,0.4,1,0,1.4C17.5,777.9,17.3,778,17,778z"/>
</g>
<g id="right-small-on">
	<path id="XMLID_266_" class="st0" d="M39,750c-0.3,0-0.5-0.1-0.7-0.3c-0.4-0.4-0.4-1,0-1.4l6.3-6.3l-6.3-6.3c-0.4-0.4-0.4-1,0-1.4
		s1-0.4,1.4,0l7,7c0.4,0.4,0.4,1,0,1.4l-7,7C39.5,749.9,39.3,750,39,750z"/>
</g>
<g id="right-small">
	<path id="XMLID_265_" class="st1" d="M11,750c-0.3,0-0.5-0.1-0.7-0.3c-0.4-0.4-0.4-1,0-1.4l6.3-6.3l-6.3-6.3c-0.4-0.4-0.4-1,0-1.4
		s1-0.4,1.4,0l7,7c0.4,0.4,0.4,1,0,1.4l-7,7C11.5,749.9,11.3,750,11,750z"/>
</g>
<g id="edit-small-on">
	<g id="XMLID_263_">
		<path id="XMLID_264_" class="st1" d="M48,722H35c-0.6,0-1-0.4-1-1v-13c0-0.6,0.4-1,1-1h5c0.6,0,1,0.4,1,1s-0.4,1-1,1h-4v11h11v-4
			c0-0.6,0.4-1,1-1s1,0.4,1,1v5C49,721.6,48.6,722,48,722z"/>
	</g>
	<path id="XMLID_262_" class="st1" d="M49.3,710.7l-6,6c-0.2,0.2-0.4,0.3-0.7,0.3H40c-0.6,0-1-0.4-1-1v-2.6c0-0.3,0.1-0.5,0.3-0.7
		l6-6c0.4-0.4,1-0.4,1.4,0l2.6,2.6C49.7,709.7,49.7,710.3,49.3,710.7z"/>
</g>
<g id="edit-small">
	<g id="XMLID_260_">
		<path id="XMLID_261_" class="st1" d="M20,722H7c-0.6,0-1-0.4-1-1v-13c0-0.6,0.4-1,1-1h5c0.6,0,1,0.4,1,1s-0.4,1-1,1H8v11h11v-4
			c0-0.6,0.4-1,1-1s1,0.4,1,1v5C21,721.6,20.6,722,20,722z"/>
	</g>
	<g id="XMLID_256_">
		<path id="XMLID_257_" class="st1" d="M15,718h-4c-0.6,0-1-0.4-1-1v-4c0-0.3,0.1-0.5,0.3-0.7l6-6c0.4-0.4,1-0.4,1.4,0l4,4
			c0.4,0.4,0.4,1,0,1.4l-6,6C15.5,717.9,15.3,718,15,718z M12,716h2.6l5-5l-2.6-2.6l-5,5V716z"/>
	</g>
</g>
<path id="additem-on" class="st1" d="M53,686c0,6.1-4.9,11-11,11s-11-4.9-11-11s4.9-11,11-11S53,679.9,53,686z M48,685h-5v-5
	c0-0.6-0.4-1-1-1s-1,0.4-1,1v5h-5c-0.6,0-1,0.4-1,1s0.4,1,1,1h5v5c0,0.6,0.4,1,1,1s1-0.4,1-1v-5h5c0.6,0,1-0.4,1-1S48.6,685,48,685z
	"/>
<g id="XMLID_249_">
	<path id="XMLID_253_" class="st1" d="M20,685h-5v-5c0-0.6-0.4-1-1-1s-1,0.4-1,1v5H8c-0.6,0-1,0.4-1,1s0.4,1,1,1h5v5
		c0,0.6,0.4,1,1,1s1-0.4,1-1v-5h5c0.6,0,1-0.4,1-1S20.6,685,20,685z"/>
	<path id="XMLID_250_" class="st1" d="M14,675c-6.1,0-11,4.9-11,11s4.9,11,11,11s11-4.9,11-11S20.1,675,14,675z M14,695
		c-5,0-9-4-9-9s4-9,9-9s9,4,9,9S19,695,14,695z"/>
</g>
<g id="sorting">
	<path id="XMLID_248_" class="st1" d="M6,654h10c0.6,0,1-0.4,1-1s-0.4-1-1-1H6c-0.6,0-1,0.4-1,1S5.4,654,6,654z"/>
	<path id="XMLID_247_" class="st1" d="M6,659h6c0.6,0,1-0.4,1-1s-0.4-1-1-1H6c-0.6,0-1,0.4-1,1S5.4,659,6,659z"/>
	<path id="XMLID_246_" class="st1" d="M6,664h2c0.6,0,1-0.4,1-1s-0.4-1-1-1H6c-0.6,0-1,0.4-1,1S5.4,664,6,664z"/>
	<path id="XMLID_245_" class="st1" d="M16.9,661.5c-0.4-0.4-1-0.4-1.4,0s-0.4,1,0,1.4l2.8,2.8c0.1,0.1,0.2,0.2,0.3,0.2
		c0.1,0.1,0.3,0.1,0.4,0.1s0.3,0,0.4-0.1s0.2-0.1,0.3-0.2l2.8-2.8c0.4-0.4,0.4-1,0-1.4s-1-0.4-1.4,0l-1.1,1.1V656c0-0.6-0.4-1-1-1
		s-1,0.4-1,1v6.6L16.9,661.5z"/>
	<path id="XMLID_242_" class="st1" d="M26,648c0-0.6-0.4-1-1-1H3c-0.6,0-1,0.4-1,1v20c0,0.6,0.4,1,1,1h22c0.6,0,1-0.4,1-1V648z
		 M24,667H4v-18h20V667z"/>
</g>
<g id="more-on">
	<g id="XMLID_239_">
		<rect id="XMLID_106_" x="39" y="627" class="st1" width="6" height="6"/>
	</g>
	<g id="XMLID_236_">
		<rect id="XMLID_113_" x="48" y="627" class="st1" width="6" height="6"/>
	</g>
	<g id="XMLID_233_">
		<rect id="XMLID_234_" x="30" y="627" class="st1" width="6" height="6"/>
	</g>
</g>
<g id="more">
	<g id="XMLID_229_">
		<path id="XMLID_230_" class="st1" d="M15,629v2h-2v-2H15 M17,627h-6v6h6V627L17,627z"/>
	</g>
	<g id="XMLID_225_">
		<path id="XMLID_226_" class="st1" d="M24,629v2h-2v-2H24 M26,627h-6v6h6V627L26,627z"/>
	</g>
	<g id="XMLID_221_">
		<path id="XMLID_222_" class="st1" d="M6,629v2H4v-2H6 M8,627H2v6h6V627L8,627z"/>
	</g>
</g>
<g id="close-on">
	<g id="XMLID_219_">
		<path id="XMLID_220_" class="st14" d="M35,610c-0.3,0-0.5-0.1-0.7-0.3c-0.4-0.4-0.4-1,0-1.4l14-14c0.4-0.4,1-0.4,1.4,0
			s0.4,1,0,1.4l-14,14C35.5,609.9,35.3,610,35,610z"/>
	</g>
	<g id="XMLID_217_">
		<path id="XMLID_218_" class="st14" d="M49,610c-0.3,0-0.5-0.1-0.7-0.3l-14-14c-0.4-0.4-0.4-1,0-1.4s1-0.4,1.4,0l14,14
			c0.4,0.4,0.4,1,0,1.4C49.5,609.9,49.3,610,49,610z"/>
	</g>
</g>
<g id="close">
	<g id="XMLID_215_">
		<path id="XMLID_216_" class="st1" d="M7,610c-0.3,0-0.5-0.1-0.7-0.3c-0.4-0.4-0.4-1,0-1.4l14-14c0.4-0.4,1-0.4,1.4,0s0.4,1,0,1.4
			l-14,14C7.5,609.9,7.3,610,7,610z"/>
	</g>
	<g id="XMLID_213_">
		<path id="XMLID_214_" class="st1" d="M21,610c-0.3,0-0.5-0.1-0.7-0.3l-14-14c-0.4-0.4-0.4-1,0-1.4s1-0.4,1.4,0l14,14
			c0.4,0.4,0.4,1,0,1.4C21.5,609.9,21.3,610,21,610z"/>
	</g>
</g>
<g id="checkmark-on">
	<path id="XMLID_212_" class="st15" d="M40,580c-0.3,0-0.5-0.1-0.7-0.3l-7-7c-0.4-0.4-0.4-1,0-1.4c0.4-0.4,1-0.4,1.4,0l6.3,6.3
		l10.3-10.3c0.4-0.4,1-0.4,1.4,0s0.4,1,0,1.4l-11,11C40.5,579.9,40.3,580,40,580z"/>
</g>
<g id="checkmark">
	<path id="XMLID_211_" class="st1" d="M12,580c-0.3,0-0.5-0.1-0.7-0.3l-7-7c-0.4-0.4-0.4-1,0-1.4s1-0.4,1.4,0l6.3,6.3l10.3-10.3
		c0.4-0.4,1-0.4,1.4,0s0.4,1,0,1.4l-11,11C12.5,579.9,12.3,580,12,580z"/>
</g>
<g id="back-on">
	<g id="XMLID_209_">
		<path id="XMLID_210_" class="st0" d="M43,555c-0.3,0-0.5-0.1-0.7-0.3l-8-8c-0.4-0.4-0.4-1,0-1.4l8-8c0.4-0.4,1-0.4,1.4,0
			s0.4,1,0,1.4l-7.3,7.3l7.3,7.3c0.4,0.4,0.4,1,0,1.4C43.5,554.9,43.3,555,43,555z"/>
	</g>
	<g id="XMLID_207_">
		<path id="XMLID_208_" class="st0" d="M48,547H36c-0.6,0-1-0.4-1-1s0.4-1,1-1h12c0.6,0,1,0.4,1,1S48.6,547,48,547z"/>
	</g>
</g>
<g id="back">
	<g id="XMLID_205_">
		<path id="XMLID_206_" class="st1" d="M15,555c-0.3,0-0.5-0.1-0.7-0.3l-8-8c-0.4-0.4-0.4-1,0-1.4l8-8c0.4-0.4,1-0.4,1.4,0
			c0.4,0.4,0.4,1,0,1.4L8.4,546l7.3,7.3c0.4,0.4,0.4,1,0,1.4C15.5,554.9,15.3,555,15,555z"/>
	</g>
	<g id="XMLID_203_">
		<path id="XMLID_204_" class="st1" d="M20,547H8c-0.6,0-1-0.4-1-1s0.4-1,1-1h12c0.6,0,1,0.4,1,1S20.6,547,20,547z"/>
	</g>
</g>
<g id="next-on">
	<g id="XMLID_201_">
		<path id="XMLID_202_" class="st0" d="M40,527c-0.3,0-0.5-0.1-0.7-0.3c-0.4-0.4-0.4-1,0-1.4l7.3-7.3l-7.3-7.3c-0.4-0.4-0.4-1,0-1.4
			s1-0.4,1.4,0l8,8c0.4,0.4,0.4,1,0,1.4l-8,8C40.5,526.9,40.3,527,40,527z"/>
	</g>
	<g id="XMLID_199_">
		<path id="XMLID_200_" class="st0" d="M47,519H35c-0.6,0-1-0.4-1-1s0.4-1,1-1h12c0.6,0,1,0.4,1,1S47.6,519,47,519z"/>
	</g>
</g>
<g id="next">
	<g id="XMLID_197_">
		<path id="XMLID_198_" class="st1" d="M12,527c-0.3,0-0.5-0.1-0.7-0.3c-0.4-0.4-0.4-1,0-1.4l7.3-7.3l-7.3-7.3c-0.4-0.4-0.4-1,0-1.4
			s1-0.4,1.4,0l8,8c0.4,0.4,0.4,1,0,1.4l-8,8C12.5,526.9,12.3,527,12,527z"/>
	</g>
	<g id="XMLID_195_">
		<path id="XMLID_196_" class="st1" d="M19,519H7c-0.6,0-1-0.4-1-1s0.4-1,1-1h12c0.6,0,1,0.4,1,1S19.6,519,19,519z"/>
	</g>
</g>
<g id="down-on">
	<path id="XMLID_194_" class="st0" d="M42,495c-0.3,0-0.5-0.1-0.7-0.3l-8-8c-0.4-0.4-0.4-1,0-1.4s1-0.4,1.4,0l7.3,7.3l7.3-7.3
		c0.4-0.4,1-0.4,1.4,0s0.4,1,0,1.4l-8,8C42.5,494.9,42.3,495,42,495z"/>
</g>
<g id="down">
	<path id="XMLID_193_" class="st1" d="M14,495c-0.3,0-0.5-0.1-0.7-0.3l-8-8c-0.4-0.4-0.4-1,0-1.4s1-0.4,1.4,0l7.3,7.3l7.3-7.3
		c0.4-0.4,1-0.4,1.4,0s0.4,1,0,1.4l-8,8C14.5,494.9,14.3,495,14,495z"/>
</g>
<g id="up-on">
	<path id="XMLID_192_" class="st0" d="M50,467c-0.3,0-0.5-0.1-0.7-0.3l-7.3-7.3l-7.3,7.3c-0.4,0.4-1,0.4-1.4,0s-0.4-1,0-1.4l8-8
		c0.4-0.4,1-0.4,1.4,0l8,8c0.4,0.4,0.4,1,0,1.4C50.5,466.9,50.3,467,50,467z"/>
</g>
<g id="up">
	<path id="XMLID_191_" class="st1" d="M22,467c-0.3,0-0.5-0.1-0.7-0.3l-7.3-7.3l-7.3,7.3c-0.4,0.4-1,0.4-1.4,0s-0.4-1,0-1.4l8-8
		c0.4-0.4,1-0.4,1.4,0l8,8c0.4,0.4,0.4,1,0,1.4C22.5,466.9,22.3,467,22,467z"/>
</g>
<g id="left-on">
	<path id="XMLID_190_" class="st0" d="M46,443c-0.3,0-0.5-0.1-0.7-0.3l-8-8c-0.4-0.4-0.4-1,0-1.4l8-8c0.4-0.4,1-0.4,1.4,0
		s0.4,1,0,1.4l-7.3,7.3l7.3,7.3c0.4,0.4,0.4,1,0,1.4C46.5,442.9,46.3,443,46,443z"/>
</g>
<g id="left">
	<path id="XMLID_189_" class="st1" d="M18,443c-0.3,0-0.5-0.1-0.7-0.3l-8-8c-0.4-0.4-0.4-1,0-1.4l8-8c0.4-0.4,1-0.4,1.4,0
		s0.4,1,0,1.4l-7.3,7.3l7.3,7.3c0.4,0.4,0.4,1,0,1.4C18.5,442.9,18.3,443,18,443z"/>
</g>
<g id="right-on">
	<path id="XMLID_188_" class="st0" d="M39,415c-0.3,0-0.5-0.1-0.7-0.3c-0.4-0.4-0.4-1,0-1.4l7.3-7.3l-7.3-7.3c-0.4-0.4-0.4-1,0-1.4
		s1-0.4,1.4,0l8,8c0.4,0.4,0.4,1,0,1.4l-8,8C39.5,414.9,39.3,415,39,415z"/>
</g>
<g id="right">
	<path id="XMLID_187_" class="st1" d="M11,415c-0.3,0-0.5-0.1-0.7-0.3c-0.4-0.4-0.4-1,0-1.4l7.3-7.3l-7.3-7.3c-0.4-0.4-0.4-1,0-1.4
		s1-0.4,1.4,0l8,8c0.4,0.4,0.4,1,0,1.4l-8,8C11.5,414.9,11.3,415,11,415z"/>
</g>
<g id="left_3_">
	<path id="XMLID_7_" class="st7" d="M18,1367c-0.3,0-0.5-0.1-0.7-0.3l-8-8c-0.4-0.4-0.4-1,0-1.4l8-8c0.4-0.4,1-0.4,1.4,0
		s0.4,1,0,1.4l-7.3,7.3l7.3,7.3c0.4,0.4,0.4,1,0,1.4C18.5,1366.9,18.3,1367,18,1367z"/>
</g>
<g id="right_3_">
	<path id="XMLID_5_" class="st7" d="M10,1339c-0.3,0-0.5-0.1-0.7-0.3c-0.4-0.4-0.4-1,0-1.4l7.3-7.3l-7.3-7.3c-0.4-0.4-0.4-1,0-1.4
		s1-0.4,1.4,0l8,8c0.4,0.4,0.4,1,0,1.4l-8,8C10.5,1338.9,10.3,1339,10,1339z"/>
</g>
<g id="menu-on">
	<g id="XMLID_185_">
		<path id="XMLID_186_" class="st16" d="M50,374H34c-0.6,0-1-0.4-1-1s0.4-1,1-1h16c0.6,0,1,0.4,1,1S50.6,374,50,374z"/>
	</g>
	<g id="XMLID_183_">
		<path id="XMLID_184_" class="st16" d="M50,379H34c-0.6,0-1-0.4-1-1s0.4-1,1-1h16c0.6,0,1,0.4,1,1S50.6,379,50,379z"/>
	</g>
	<g id="XMLID_181_">
		<path id="XMLID_182_" class="st16" d="M50,384H34c-0.6,0-1-0.4-1-1s0.4-1,1-1h16c0.6,0,1,0.4,1,1S50.6,384,50,384z"/>
	</g>
</g>
<g id="menu">
	<g id="XMLID_179_">
		<path id="XMLID_180_" class="st0" d="M22,374H6c-0.6,0-1-0.4-1-1s0.4-1,1-1h16c0.6,0,1,0.4,1,1S22.6,374,22,374z"/>
	</g>
	<g id="XMLID_177_">
		<path id="XMLID_178_" class="st0" d="M22,379H6c-0.6,0-1-0.4-1-1s0.4-1,1-1h16c0.6,0,1,0.4,1,1S22.6,379,22,379z"/>
	</g>
	<g id="XMLID_175_">
		<path id="XMLID_176_" class="st0" d="M22,384H6c-0.6,0-1-0.4-1-1s0.4-1,1-1h16c0.6,0,1,0.4,1,1S22.6,384,22,384z"/>
	</g>
</g>
<g id="pause-on">
	<path id="XMLID_171_" class="st1" d="M41.9,339.1c-6.1,0-11,4.9-11,11s4.9,11,11,11s11-4.9,11-11S48,339.1,41.9,339.1z M40,353
		c0,0.6-0.4,1-1,1s-1-0.4-1-1v-6c0-0.6,0.4-1,1-1s1,0.4,1,1V353z M46,353c0,0.6-0.4,1-1,1s-1-0.4-1-1v-6c0-0.6,0.4-1,1-1s1,0.4,1,1
		V353z"/>
</g>
<g id="pause">
	<g id="XMLID_167_">
		<path id="XMLID_168_" class="st1" d="M13.9,361.1c-6.1,0-11-4.9-11-11s4.9-11,11-11s11,4.9,11,11S20,361.1,13.9,361.1z
			 M13.9,341.1c-5,0-9,4-9,9s4,9,9,9s9-4,9-9S18.9,341.1,13.9,341.1z"/>
	</g>
	<g id="XMLID_165_">
		<path id="XMLID_166_" class="st1" d="M11,354c-0.6,0-1-0.4-1-1v-6c0-0.6,0.4-1,1-1s1,0.4,1,1v6C12,353.6,11.6,354,11,354z"/>
	</g>
	<g id="XMLID_163_">
		<path id="XMLID_164_" class="st1" d="M17,354c-0.6,0-1-0.4-1-1v-6c0-0.6,0.4-1,1-1s1,0.4,1,1v6C18,353.6,17.6,354,17,354z"/>
	</g>
</g>
<g id="play-on_1_">
	<path id="XMLID_160_" class="st1" d="M41.9,311.1c-6.1,0-11,4.9-11,11s4.9,11,11,11s11-4.9,11-11S48,311.1,41.9,311.1z M40,326v-8
		l6,4.1L40,326z"/>
</g>
<g id="play_1_">
	<g id="XMLID_156_">
		<path id="XMLID_157_" class="st1" d="M13.9,333.1c-6.1,0-11-4.9-11-11s4.9-11,11-11s11,4.9,11,11S20,333.1,13.9,333.1z
			 M13.9,313.1c-5,0-9,4-9,9s4,9,9,9s9-4,9-9S18.9,313.1,13.9,313.1z"/>
	</g>
	<g id="XMLID_152_">
		<path id="XMLID_153_" class="st1" d="M12,327c-0.2,0-0.3,0-0.5-0.1c-0.3-0.2-0.5-0.5-0.5-0.9v-8c0-0.4,0.2-0.7,0.5-0.9
			c0.3-0.2,0.7-0.2,1,0.1l6,4.1c0.3,0.2,0.4,0.5,0.4,0.8s-0.2,0.6-0.5,0.8l-6,3.9C12.4,326.9,12.2,327,12,327z M13,319.9v4.3
			l3.2-2.1L13,319.9z"/>
	</g>
</g>
<g id="moreinfo-on">
	<path id="XMLID_148_" class="st1" d="M42,283c-6.1,0-11,4.9-11,11s4.9,11,11,11s11-4.9,11-11S48.1,283,42,283z M42.7,299.7
		c-0.2,0.2-0.5,0.3-0.7,0.3s-0.5-0.1-0.7-0.3c-0.2-0.2-0.3-0.5-0.3-0.7c0-0.3,0.1-0.5,0.3-0.7c0.4-0.4,1-0.4,1.4,0
		c0.2,0.2,0.3,0.5,0.3,0.7S42.9,299.5,42.7,299.7z M44.3,293.8c-0.8,0.6-1.3,1.1-1.3,2.2c0,0.6-0.4,1-1,1s-1-0.4-1-1
		c0-2.1,1.2-3,2.1-3.8c0.7-0.6,0.9-0.8,0.9-1.2c0-1.1-0.9-2-2-2s-2,0.9-2,2c0,0.6-0.4,1-1,1s-1-0.4-1-1c0-2.2,1.8-4,4-4s4,1.8,4,4
		C46,292.4,45.1,293.2,44.3,293.8z"/>
</g>
<g id="moreinfo">
	<g id="XMLID_144_">
		<path id="XMLID_145_" class="st1" d="M14,305c-6.1,0-11-4.9-11-11s4.9-11,11-11s11,4.9,11,11S20.1,305,14,305z M14,285
			c-5,0-9,4-9,9s4,9,9,9s9-4,9-9S19,285,14,285z"/>
	</g>
	<g id="XMLID_142_">
		<path id="XMLID_143_" class="st1" d="M14,300c-0.3,0-0.5-0.1-0.7-0.3c-0.2-0.2-0.3-0.5-0.3-0.7s0.1-0.5,0.3-0.7
			c0.4-0.4,1-0.4,1.4,0c0.2,0.2,0.3,0.4,0.3,0.7c0,0.3-0.1,0.5-0.3,0.7C14.5,299.9,14.3,300,14,300z"/>
	</g>
	<g id="XMLID_140_">
		<path id="XMLID_141_" class="st1" d="M14,297c-0.6,0-1-0.4-1-1c0-2.1,1.2-3,2.1-3.8c0.7-0.6,0.9-0.8,0.9-1.2c0-1.1-0.9-2-2-2
			s-2,0.9-2,2c0,0.6-0.4,1-1,1s-1-0.4-1-1c0-2.2,1.8-4,4-4s4,1.8,4,4c0,1.4-0.9,2.2-1.7,2.8c-0.8,0.6-1.3,1.1-1.3,2.2
			C15,296.6,14.6,297,14,297z"/>
	</g>
</g>
<g id="audio">
	<g id="XMLID_136_">
		<path id="XMLID_137_" class="st1" d="M11,274c-0.2,0-0.4-0.1-0.6-0.2L5.6,270H3c-0.6,0-1-0.4-1-1v-5c0-0.6,0.4-1,1-1h2.6l4.7-3.8
			c0.3-0.2,0.7-0.3,1.1-0.1c0.3,0.2,0.6,0.5,0.6,0.9v13c0,0.4-0.2,0.7-0.6,0.9C11.3,274,11.1,274,11,274z M4,268h2
			c0.2,0,0.4,0.1,0.6,0.2l3.4,2.7v-8.8l-3.4,2.7C6.4,264.9,6.2,265,6,265H4V268z"/>
	</g>
	<g id="XMLID_134_">
		<path id="XMLID_135_" class="st1" d="M21,275c-0.3,0-0.6-0.1-0.8-0.4c-0.3-0.4-0.3-1.1,0.2-1.4c2.1-1.6,3.2-4,3.4-6.5
			c0.1-2.9-1.1-5.8-3.4-8c-0.4-0.4-0.4-1,0-1.4s1-0.4,1.4,0c2.7,2.6,4.2,6,4,9.5c-0.1,3.2-1.6,6-4.1,8C21.4,274.9,21.2,275,21,275z"
			/>
	</g>
	<g id="XMLID_132_">
		<path id="XMLID_133_" class="st1" d="M18,272c-0.3,0-0.5-0.1-0.7-0.3c-0.4-0.4-0.4-1,0-1.4c1.3-1.3,2-2.7,2-4.3c0-1.5-0.7-3-2-4.3
			c-0.4-0.4-0.4-1,0-1.4s1-0.4,1.4,0c1.7,1.7,2.5,3.6,2.5,5.7s-0.9,4.1-2.5,5.7C18.5,271.9,18.3,272,18,272z"/>
	</g>
	<g id="XMLID_130_">
		<path id="XMLID_131_" class="st1" d="M15,269c-0.3,0-0.5-0.1-0.7-0.3c-0.4-0.4-0.4-1,0-1.4c0.6-0.6,0.6-1.8-0.1-2.6
			c-0.4-0.4-0.3-1.1,0.1-1.4c0.4-0.4,1.1-0.3,1.4,0.1c1.3,1.6,1.3,4-0.1,5.3C15.5,268.9,15.3,269,15,269z"/>
	</g>
</g>
<g id="brokenpage">
	<g id="XMLID_126_">
		<path id="XMLID_127_" class="st1" d="M22,240c-0.1,0-0.3,0-0.4-0.1l-4.7-1.9l-5.7,1.9c-0.2,0.1-0.5,0.1-0.7,0l-5-2
			C5.2,237.8,5,237.4,5,237v-10c0-0.6,0.4-1,1-1h10c0.3,0,0.5,0.1,0.7,0.3l6,6c0.2,0.2,0.3,0.4,0.3,0.7v6c0,0.3-0.2,0.6-0.4,0.8
			C22.4,239.9,22.2,240,22,240z M7,236.3l4,1.6l5.7-1.9c0.2-0.1,0.5-0.1,0.7,0l3.6,1.5v-4.1l-5.4-5.4H7V236.3z"/>
	</g>
	<g id="XMLID_122_">
		<path id="XMLID_123_" class="st1" d="M22,250H6c-0.6,0-1-0.4-1-1v-8c0-0.3,0.2-0.6,0.4-0.8c0.3-0.2,0.6-0.2,0.9-0.1L11,242
			l5.7-1.9c0.2-0.1,0.5-0.1,0.7,0l5,2c0.4,0.2,0.6,0.5,0.6,0.9v6C23,249.6,22.6,250,22,250z M7,248h14v-4.3l-4-1.6l-5.7,1.9
			c-0.2,0.1-0.5,0.1-0.7,0L7,242.5V248z"/>
	</g>
	<g id="XMLID_120_">
		<path id="XMLID_121_" class="st1" d="M22,234h-6c-0.6,0-1-0.4-1-1v-6c0-0.6,0.4-1,1-1s1,0.4,1,1v5h5c0.6,0,1,0.4,1,1
			S22.6,234,22,234z"/>
	</g>
</g>
<g id="page">
	<g id="XMLID_116_">
		<path id="XMLID_117_" class="st1" d="M22,222H6c-0.6,0-1-0.4-1-1v-22c0-0.6,0.4-1,1-1h10c0.3,0,0.5,0.1,0.7,0.3l6,6
			c0.2,0.2,0.3,0.4,0.3,0.7v16C23,221.6,22.6,222,22,222z M7,220h14v-14.6l-5.4-5.4H7V220z"/>
	</g>
	<g id="XMLID_114_">
		<path id="XMLID_115_" class="st1" d="M22,206h-6c-0.6,0-1-0.4-1-1v-6c0-0.6,0.4-1,1-1s1,0.4,1,1v5h5c0.6,0,1,0.4,1,1
			S22.6,206,22,206z"/>
	</g>
</g>
<g id="female-on">
	<circle id="XMLID_111_" class="st17" cx="42" cy="174" r="4"/>
	<g id="XMLID_108_">
		<path id="XMLID_107_" class="st17" d="M41,179c-0.5,0-1.2,0.4-1.6,0.8l-4.9,7.3c-0.3,0.5-0.1,0.9,0.4,1.1l6.1,1.5
			c0.5,0.1,1.4,0.1,1.9,0l6.1-1.5c0.5-0.1,0.7-0.6,0.4-1.1l-4.9-7.3c-0.3-0.5-1-0.8-1.6-0.8H41z"/>
	</g>
	<g id="XMLID_105_">
		<path id="XMLID_109_" class="st17" d="M39,186c-0.5,0-0.9,0.4-0.8,1l1.5,6.1c0.1,0.5,0.7,1,1.2,1h2c0.5,0,1.1-0.4,1.2-1l1.5-6.1
			c0.1-0.5-0.2-1-0.8-1H39z"/>
	</g>
</g>
<g id="female">
	<g id="XMLID_101_">
		<path id="XMLID_102_" class="st18" d="M14,178c-2.2,0-4-1.8-4-4s1.8-4,4-4s4,1.8,4,4S16.2,178,14,178z M14,172c-1.1,0-2,0.9-2,2
			s0.9,2,2,2s2-0.9,2-2S15.1,172,14,172z"/>
	</g>
	<g id="XMLID_97_">
		<path id="XMLID_98_" class="st18" d="M16,194h-4c-0.5,0-0.9-0.3-1-0.8l-0.9-4.4L6.8,188c-0.3-0.1-0.6-0.3-0.7-0.6
			s-0.1-0.7,0.1-0.9l5-7c0.2-0.3,0.5-0.4,0.8-0.4h4c0.3,0,0.6,0.2,0.8,0.4l5,7c0.2,0.3,0.2,0.6,0.1,0.9s-0.4,0.5-0.7,0.6l-3.4,0.8
			l-0.9,4.4C16.9,193.7,16.5,194,16,194z M12.8,192h2.4l0.8-4.2c0.1-0.4,0.4-0.7,0.7-0.8l2.6-0.6l-3.8-5.4h-3l-3.8,5.4l2.6,0.6
			c0.4,0.1,0.7,0.4,0.7,0.8L12.8,192z"/>
	</g>
</g>
<g id="male-on">
	<circle id="XMLID_96_" class="st19" cx="42" cy="146" r="4"/>
	<g id="XMLID_93_">
		<path id="XMLID_112_" class="st19" d="M39,158c-0.5,0-0.9,0.4-0.8,1l1.5,6.1c0.1,0.5,0.7,1,1.2,1h2c0.5,0,1.1-0.4,1.2-1l1.5-6.1
			c0.1-0.5-0.2-1-0.8-1H39z"/>
	</g>
	<g id="XMLID_90_">
		<path id="XMLID_110_" class="st19" d="M36,152c0-0.6,0.5-1,1-1h10c0.5,0,1,0.4,1,1v5c0,0.6-0.4,1.2-0.9,1.4l-4.2,2.1
			c-0.5,0.2-1.3,0.2-1.8,0l-4.2-2.1c-0.5-0.2-0.9-0.9-0.9-1.4C36,157,36,152,36,152z"/>
	</g>
</g>
<g id="male">
	<g id="XMLID_86_">
		<path id="XMLID_87_" class="st18" d="M14,150c-2.2,0-4-1.8-4-4s1.8-4,4-4s4,1.8,4,4S16.2,150,14,150z M14,144c-1.1,0-2,0.9-2,2
			s0.9,2,2,2s2-0.9,2-2S15.1,144,14,144z"/>
	</g>
	<g id="XMLID_82_">
		<path id="XMLID_83_" class="st18" d="M16,166h-4c-0.5,0-0.9-0.4-1-0.8l-0.9-5.5l-1.5-0.8C8.2,158.7,8,158.4,8,158v-6
			c0-0.6,0.4-1,1-1h10c0.6,0,1,0.4,1,1v6c0,0.4-0.2,0.7-0.6,0.9l-1.5,0.8l-0.9,5.5C16.9,165.6,16.5,166,16,166z M12.8,164h2.3
			l0.9-5.2c0.1-0.3,0.3-0.6,0.5-0.7l1.4-0.7V153h-8v4.4l1.4,0.7c0.3,0.1,0.5,0.4,0.5,0.7L12.8,164z"/>
	</g>
</g>
<g id="active">
	<g id="XMLID_80_">
		<path id="XMLID_81_" class="st20" d="M44,138h-4c-0.6,0-1-0.4-1-1s0.4-1,1-1h4c0.6,0,1,0.4,1,1S44.6,138,44,138z"/>
	</g>
	<g id="XMLID_78_">
		<path id="XMLID_79_" class="st20" d="M45,135h-6c-0.6,0-1-0.4-1-1s0.4-1,1-1h6c0.6,0,1,0.4,1,1S45.6,135,45,135z"/>
	</g>
	<path id="XMLID_74_" class="st20" d="M48.8,124L48.8,124l-3.4,8h-6.8l-3.4-8l0,0c-1.1-3-0.6-5.8,1.6-8c2.9-2.9,7.5-2.8,10.3,0
		C49.3,118.2,49.9,121,48.8,124z M47,120c0-2.2-1.8-4-4-4c-0.6,0-1,0.4-1,1s0.4,1,1,1c1.1,0,2,0.9,2,2c0,0.6,0.4,1,1,1
		S47,120.6,47,120z"/>
</g>
<g id="inactive">
	<g id="XMLID_72_">
		<path id="XMLID_73_" class="st1" d="M16,138h-4c-0.6,0-1-0.4-1-1s0.4-1,1-1h4c0.6,0,1,0.4,1,1S16.6,138,16,138z"/>
	</g>
	<g id="XMLID_70_">
		<path id="XMLID_71_" class="st1" d="M17,135h-6c-0.6,0-1-0.4-1-1s0.4-1,1-1h6c0.6,0,1,0.4,1,1S17.6,135,17,135z"/>
	</g>
	<g id="XMLID_68_">
		<path id="XMLID_69_" class="st1" d="M20,125c-0.1,0-0.3,0-0.4-0.1c-0.5-0.2-0.8-0.8-0.5-1.3c0.9-2.1,0.4-4.4-1.2-6
			c-2.1-2.1-5.6-2.1-7.8,0c-1.6,1.6-2,3.9-1.2,6c0.2,0.5,0,1.1-0.5,1.3c-0.5,0.2-1.1,0-1.3-0.5c-1.2-2.8-0.5-6,1.6-8.2
			c2.9-2.9,7.7-2.9,10.6,0c2.2,2.2,2.8,5.4,1.6,8.2C20.8,124.8,20.4,125,20,125z"/>
	</g>
	<g id="XMLID_66_">
		<path id="XMLID_67_" class="st1" d="M17,132h-6c-0.4,0-0.8-0.2-0.9-0.6l-3-7c-0.2-0.5,0-1.1,0.5-1.3c0.5-0.2,1.1,0,1.3,0.5
			l2.7,6.4h4.7l2.7-6.4c0.2-0.5,0.8-0.7,1.3-0.5s0.7,0.8,0.5,1.3l-3,7C17.8,131.8,17.4,132,17,132z"/>
	</g>
	<g id="XMLID_64_">
		<path id="XMLID_65_" class="st1" d="M17,122c-0.6,0-1-0.4-1-1c0-1.1-0.9-2-2-2c-0.6,0-1-0.4-1-1s0.4-1,1-1c2.2,0,4,1.8,4,4
			C18,121.6,17.6,122,17,122z"/>
	</g>
</g>
<g id="edit-on">
	<g id="XMLID_62_">
		<path id="XMLID_63_" class="st1" d="M51,108H33c-0.6,0-1-0.4-1-1V89c0-0.6,0.4-1,1-1h8c0.6,0,1,0.4,1,1s-0.4,1-1,1h-7v16h16v-7
			c0-0.6,0.4-1,1-1s1,0.4,1,1v8C52,107.6,51.6,108,51,108z"/>
	</g>
	<g id="XMLID_60_">
		<path id="XMLID_61_" class="st1" d="M52.3,92.7l-9,9c-0.2,0.2-0.4,0.3-0.7,0.3H39c-0.6,0-1-0.4-1-1v-3.6c0-0.3,0.1-0.5,0.3-0.7
			l9-9c0.4-0.4,1-0.4,1.4,0l3.6,3.6C52.7,91.7,52.7,92.3,52.3,92.7z"/>
	</g>
</g>
<g id="edit">
	<g id="XMLID_58_">
		<path id="XMLID_59_" class="st1" d="M23,108H5c-0.6,0-1-0.4-1-1V89c0-0.6,0.4-1,1-1h8c0.6,0,1,0.4,1,1s-0.4,1-1,1H6v16h16v-7
			c0-0.6,0.4-1,1-1s1,0.4,1,1v8C24,107.6,23.6,108,23,108z"/>
	</g>
	<g id="XMLID_54_">
		<path id="XMLID_55_" class="st1" d="M15,103h-5c-0.6,0-1-0.4-1-1v-5c0-0.3,0.1-0.5,0.3-0.7l9-9c0.4-0.4,1-0.4,1.4,0l5,5
			c0.4,0.4,0.4,1,0,1.4l-9,9C15.5,102.9,15.3,103,15,103z M11,101h3.6l8-8L19,89.4l-8,8V101z"/>
	</g>
</g>
<g id="settings-on">
	<path id="XMLID_51_" class="st1" d="M53,68h-1.2c-0.3-1.3-0.8-2.5-1.5-3.5l0.9-0.9c0.4-0.4,0.4-1,0-1.4l-1.4-1.4
		c-0.4-0.4-1-0.4-1.4,0l-0.9,0.9c-1-0.7-2.2-1.2-3.5-1.5V59c0-0.6-0.4-1-1-1h-2c-0.6,0-1,0.4-1,1v1.2c-1.3,0.3-2.5,0.8-3.5,1.5
		l-0.9-0.9c-0.4-0.4-1-0.4-1.4,0l-1.4,1.4c-0.4,0.4-0.4,1,0,1.4l0.9,0.9c-0.7,1-1.2,2.2-1.5,3.5H31c-0.6,0-1,0.4-1,1v2
		c0,0.6,0.4,1,1,1h1.2c0.3,1.3,0.8,2.5,1.5,3.5l-0.9,0.9c-0.4,0.4-0.4,1,0,1.4l1.4,1.4c0.4,0.4,1,0.4,1.4,0l0.9-0.9
		c1,0.7,2.2,1.2,3.5,1.5V81c0,0.6,0.4,1,1,1h2c0.6,0,1-0.4,1-1v-1.2c1.3-0.3,2.5-0.8,3.5-1.5l0.9,0.9c0.4,0.4,1,0.4,1.4,0l1.4-1.4
		c0.4-0.4,0.4-1,0-1.4l-0.9-0.9c0.7-1,1.2-2.2,1.5-3.5H53c0.6,0,1-0.4,1-1v-2C54,68.4,53.6,68,53,68z M42,76c-3.3,0-6-2.7-6-6
		s2.7-6,6-6s6,2.7,6,6S45.3,76,42,76z"/>
</g>
<g id="settings">
	<g id="XMLID_47_">
		<path id="XMLID_48_" class="st1" d="M16,82h-4c-0.6,0-1-0.4-1-1v-1.5c-0.6-0.2-1.1-0.4-1.6-0.7l-0.9,0.9c-0.4,0.4-1,0.4-1.4,0
			L4.2,77c-0.4-0.4-0.4-1,0-1.4l0.9-0.9c-0.3-0.5-0.5-1.1-0.7-1.6H3c-0.6,0-1-0.4-1-1v-4c0-0.6,0.4-1,1-1h1.5
			c0.2-0.6,0.4-1.1,0.7-1.6l-0.9-0.9c-0.4-0.4-0.4-1,0-1.4l2.7-3c0.2-0.2,0.4-0.3,0.7-0.3l0,0c0.3,0,0.5,0.1,0.7,0.3l0.9,0.9
			c0.5-0.3,1.1-0.5,1.6-0.7V59c0-0.6,0.4-1,1-1h4c0.6,0,1,0.4,1,1v1.5c0.6,0.2,1.1,0.4,1.6,0.7l0.9-0.9c0.4-0.4,1-0.4,1.4,0l2.8,2.8
			c0.4,0.4,0.4,1,0,1.4l-0.9,0.9c0.3,0.5,0.5,1.1,0.7,1.6H25c0.6,0,1,0.4,1,1v4c0,0.6-0.4,1-1,1h-1.5c-0.2,0.6-0.4,1.1-0.7,1.6
			l0.9,0.9c0.4,0.4,0.4,1,0,1.4L21,79.8c-0.2,0.2-0.4,0.3-0.7,0.3l0,0c-0.3,0-0.5-0.1-0.7-0.3l-0.9-0.9c-0.5,0.3-1.1,0.5-1.6,0.7V81
			C17,81.6,16.6,82,16,82z M13,80h2v-1.2c0-0.5,0.3-0.9,0.8-1c0.9-0.2,1.7-0.5,2.5-1c0.4-0.2,0.9-0.2,1.2,0.1l0.8,0.8l1.4-1.4
			l-0.8-0.8c-0.3-0.3-0.4-0.8-0.1-1.2c0.5-0.8,0.8-1.6,1-2.5c0.1-0.5,0.5-0.8,1-0.8H24v-2h-1.2c-0.5,0-0.9-0.3-1-0.8
			c-0.2-0.9-0.5-1.7-1-2.5c-0.2-0.4-0.2-0.9,0.1-1.2l0.8-0.8l-1.4-1.4l-0.8,0.8c-0.3,0.3-0.8,0.4-1.2,0.1c-0.8-0.5-1.6-0.8-2.5-1
			c-0.5-0.1-0.8-0.5-0.8-1V60h-2v1.2c0,0.5-0.3,0.9-0.8,1c-0.9,0.2-1.7,0.5-2.5,1c-0.4,0.2-0.9,0.2-1.2-0.1l-0.8-0.8l-1.4,1.4
			l0.8,0.8c0.3,0.3,0.4,0.8,0.1,1.2c-0.5,0.8-0.8,1.6-1,2.5c-0.1,0.5-0.5,0.8-1,0.8H4v2h1.2c0.5,0,0.9,0.3,1,0.8
			c0.2,0.9,0.5,1.7,1,2.5c0.2,0.4,0.2,0.9-0.1,1.2l-0.8,0.8l1.4,1.4l0.8-0.8c0.3-0.3,0.8-0.4,1.2-0.1c0.8,0.5,1.6,0.8,2.5,1
			c0.5,0.1,0.8,0.5,0.8,1V80z"/>
	</g>
	<g id="XMLID_43_">
		<path id="XMLID_44_" class="st1" d="M14,76c-3.3,0-6-2.7-6-6s2.7-6,6-6s6,2.7,6,6S17.3,76,14,76z M14,66c-2.2,0-4,1.8-4,4
			s1.8,4,4,4s4-1.8,4-4S16.2,66,14,66z"/>
	</g>
</g>
<g id="search">
	<g id="XMLID_39_">
		<path id="XMLID_40_" class="st1" d="M12,49c-5,0-9-4-9-9s4-9,9-9s9,4,9,9S17,49,12,49z M12,33c-3.9,0-7,3.1-7,7s3.1,7,7,7
			s7-3.1,7-7S15.9,33,12,33z"/>
	</g>
	<g id="XMLID_37_">
		<path id="XMLID_38_" class="st1" d="M24,53c-0.3,0-0.5-0.1-0.7-0.3l-6-6c-0.4-0.4-0.4-1,0-1.4s1-0.4,1.4,0l6,6
			c0.4,0.4,0.4,1,0,1.4C24.5,52.9,24.3,53,24,53z"/>
	</g>
	<g id="XMLID_35_">
		<path id="XMLID_36_" class="st1" d="M16,41c-0.6,0-1-0.4-1-1c0-1.7-1.3-3-3-3c-0.6,0-1-0.4-1-1s0.4-1,1-1c2.8,0,5,2.2,5,5
			C17,40.6,16.6,41,16,41z"/>
	</g>
</g>
<g id="search_5_">
	<g id="XMLID_31_">
		<path id="XMLID_32_" class="st16" d="M40,49c-5,0-9-4-9-9s4-9,9-9s9,4,9,9S45,49,40,49z M40,33c-3.9,0-7,3.1-7,7s3.1,7,7,7
			s7-3.1,7-7S43.9,33,40,33z"/>
	</g>
	<g id="XMLID_29_">
		<path id="XMLID_30_" class="st16" d="M52,53c-0.3,0-0.5-0.1-0.7-0.3l-6-6c-0.4-0.4-0.4-1,0-1.4s1-0.4,1.4,0l6,6
			c0.4,0.4,0.4,1,0,1.4C52.5,52.9,52.3,53,52,53z"/>
	</g>
	<g id="XMLID_26_">
		<path id="XMLID_28_" class="st16" d="M44,41c-0.6,0-1-0.4-1-1c0-1.7-1.3-3-3-3c-0.6,0-1-0.4-1-1s0.4-1,1-1c2.8,0,5,2.2,5,5
			C45,40.6,44.6,41,44,41z"/>
	</g>
</g>
<path id="home-on" class="st1" d="M42.7,3.6c-0.4-0.4-1-0.4-1.4,0L30.2,14H32v10c0,0.6,0.4,1,1,1h7v-8h4v8h7c0.6,0,1-0.4,1-1V14h1.9
	L42.7,3.6z"/>
<g id="home">
	<path id="XMLID_21_" class="st1" d="M23,25h-7c-0.6,0-1-0.4-1-1v-6h-2v6c0,0.6-0.4,1-1,1H5c-0.6,0-1-0.4-1-1v-9H3
		c-0.4,0-0.8-0.3-0.9-0.6c-0.1-0.4,0-0.8,0.3-1.1l11-10c0.4-0.3,1-0.3,1.3,0l11,10c0.3,0.3,0.4,0.7,0.3,1.1c-0.2,0.3-0.6,0.6-1,0.6
		h-1v9C24,24.6,23.6,25,23,25z M17,23h5v-9c0-0.4,0.2-0.7,0.5-0.9L14,5.4l-8.5,7.8C5.8,13.3,6,13.6,6,14v9h5v-6c0-0.6,0.4-1,1-1h4
		c0.6,0,1,0.4,1,1V23z"/>
</g>
<g id="left_1_">
	<path id="XMLID_20_" class="st0" d="M18,947c-0.3,0-0.5-0.1-0.7-0.3l-8-8c-0.4-0.4-0.4-1,0-1.4l8-8c0.4-0.4,1-0.4,1.4,0
		s0.4,1,0,1.4l-7.3,7.3l7.3,7.3c0.4,0.4,0.4,1,0,1.4C18.5,946.9,18.3,947,18,947z"/>
</g>
<g id="right_1_">
	<path id="XMLID_19_" class="st0" d="M11,919c-0.3,0-0.5-0.1-0.7-0.3c-0.4-0.4-0.4-1,0-1.4l7.3-7.3l-7.3-7.3c-0.4-0.4-0.4-1,0-1.4
		s1-0.4,1.4,0l8,8c0.4,0.4,0.4,1,0,1.4l-8,8C11.5,918.9,11.3,919,11,919z"/>
</g>
<g id="left-on_1_">
	<path id="XMLID_402_" class="st1" d="M45,1003c-0.3,0-0.5-0.1-0.7-0.3l-8-8c-0.4-0.4-0.4-1,0-1.4l8-8c0.4-0.4,1-0.4,1.4,0
		s0.4,1,0,1.4l-7.3,7.3l7.3,7.3c0.4,0.4,0.4,1,0,1.4C45.5,1002.9,45.3,1003,45,1003z"/>
</g>
<g id="left_2_">
	<path id="XMLID_425_" class="st21" d="M17,1003c-0.3,0-0.5-0.1-0.7-0.3l-8-8c-0.4-0.4-0.4-1,0-1.4l8-8c0.4-0.4,1-0.4,1.4,0
		s0.4,1,0,1.4l-7.3,7.3l7.3,7.3c0.4,0.4,0.4,1,0,1.4C17.5,1002.9,17.3,1003,17,1003z"/>
</g>
<g id="right-on_1_">
	<path id="XMLID_458_" class="st1" d="M38,975c-0.3,0-0.5-0.1-0.7-0.3c-0.4-0.4-0.4-1,0-1.4l7.3-7.3l-7.3-7.3c-0.4-0.4-0.4-1,0-1.4
		s1-0.4,1.4,0l8,8c0.4,0.4,0.4,1,0,1.4l-8,8C38.5,974.9,38.3,975,38,975z"/>
</g>
<g id="right_2_">
	<path id="XMLID_543_" class="st21" d="M10,975c-0.3,0-0.5-0.1-0.7-0.3c-0.4-0.4-0.4-1,0-1.4l7.3-7.3l-7.3-7.3c-0.4-0.4-0.4-1,0-1.4
		s1-0.4,1.4,0l8,8c0.4,0.4,0.4,1,0,1.4l-8,8C10.5,974.9,10.3,975,10,975z"/>
</g>
<g id="right-link">
	<path id="XMLID_11_" class="st16" d="M10,1787c-0.3,0-0.5-0.1-0.7-0.3c-0.4-0.4-0.4-1,0-1.4l7.3-7.3l-7.3-7.3c-0.4-0.4-0.4-1,0-1.4
		s1-0.4,1.4,0l8,8c0.4,0.4,0.4,1,0,1.4l-8,8C10.5,1786.9,10.3,1787,10,1787z"/>
</g>
<path id="apple" class="st22" d="M21.1,1811.6c-0.3,0.7-0.7,1.3-1.1,1.9c-0.6,0.8-1,1.4-1.4,1.7c-0.6,0.5-1.1,0.8-1.8,0.8
	c-0.5,0-1-0.1-1.6-0.4s-1.2-0.4-1.8-0.4s-1.2,0.1-1.8,0.4s-1.2,0.4-1.6,0.4c-0.6,0-1.2-0.2-1.8-0.8c-0.4-0.3-0.9-0.9-1.4-1.7
	c-0.6-0.9-1.1-1.9-1.5-3c-0.4-1.2-0.6-2.5-0.6-3.6c0-1.3,0.3-2.5,0.9-3.5c0.5-0.8,1.1-1.4,1.8-1.8s1.6-0.7,2.5-0.7
	c0.5,0,1.1,0.1,1.9,0.4c0.8,0.3,1.3,0.4,1.5,0.4s0.7-0.2,1.7-0.5c0.9-0.3,1.7-0.5,2.3-0.4c1.7,0.1,2.9,0.8,3.8,2
	c-1.5,0.9-2.2,2.2-2.2,3.8c0,1.3,0.5,2.3,1.4,3.2c0.4,0.4,0.9,0.7,1.4,0.9C21.4,1811,21.3,1811.3,21.1,1811.6L21.1,1811.6z
	 M17.3,1796.4c0,1-0.4,1.9-1.1,2.8c-0.9,1-1.9,1.6-3.1,1.5c0-0.1,0-0.2,0-0.4c0-1,0.4-2,1.2-2.8c0.4-0.4,0.8-0.8,1.4-1.1
	c0.6-0.3,1.1-0.4,1.6-0.5C17.3,1796.1,17.3,1796.3,17.3,1796.4L17.3,1796.4z"/>
<path id="windows" class="st22" d="M31.1,1798.8l8.1-1.1v7.9h-8.1V1798.8z M39.3,1806.5v7.9l-8.1-1.1v-6.8H39.3z M40.2,1797.6
	L51,1796v9.5l-10.8,0.1V1797.6z M51.1,1806.6v9.4l-10.8-1.5v-7.9H51.1z"/>
</svg>
