<?xml version="1.0" encoding="utf-8"?>
<!-- Generator: Adobe Illustrator 21.1.0, SVG Export Plug-In . SVG Version: 6.00 Build 0)  -->
<!DOCTYPE svg PUBLIC "-//W3C//DTD SVG 1.1//EN" "http://www.w3.org/Graphics/SVG/1.1/DTD/svg11.dtd">
<svg version="1.1" id="navigation" xmlns="http://www.w3.org/2000/svg" xmlns:xlink="http://www.w3.org/1999/xlink" x="0px" y="0px"
	 width="56px" height="504px" viewBox="0 0 56 504" style="enable-background:new 0 0 56 504;" xml:space="preserve" preserveAspectRatio="none">
<style type="text/css">
	.st0{fill:#FFFFFF;}
	.st1{fill:none;stroke:#FFFFFF;stroke-width:2;stroke-linecap:round;stroke-linejoin:round;stroke-miterlimit:10;}
	.st2{fill:#00A2FF;}
	.st3{fill:#191919;}
	.st4{fill:#02B757;}
	.st5{fill:#F68802;}
</style>
<g id="notification-on_1_">
	<path class="st0" d="M48,478H36c-3.3,0-6,2.7-6,6v12c0,3.3,2.7,6,6,6h12c3.3,0,6-2.7,6-6v-12C54,480.7,51.3,478,48,478z M49,497H35
		c-0.6,0-1-0.4-1-1s0.4-1,1-1h14c0.6,0,1,0.4,1,1S49.6,497,49,497z M49,493H35c-0.6,0-1-0.4-1-1s0.4-1,1-1h14c0.6,0,1,0.4,1,1
		S49.6,493,49,493z M49,489H35c-0.6,0-1-0.4-1-1s0.4-1,1-1h14c0.6,0,1,0.4,1,1S49.6,489,49,489z M49,485H35c-0.6,0-1-0.4-1-1
		s0.4-1,1-1h14c0.6,0,1,0.4,1,1S49.6,485,49,485z"/>
</g>
<g id="notification_1_">
	<path class="st1" d="M20,501H8c-2.8,0-5-2.2-5-5v-12c0-2.8,2.2-5,5-5h12c2.8,0,5,2.2,5,5v12C25,498.8,22.8,501,20,501z"/>
	<line class="st1" x1="7" y1="488" x2="21" y2="488"/>
	<line class="st1" x1="7" y1="492" x2="21" y2="492"/>
	<line class="st1" x1="7" y1="496" x2="21" y2="496"/>
	<line class="st1" x1="7" y1="484" x2="21" y2="484"/>
</g>
<path id="shop-on" class="st2" d="M50,457.9c0-0.5-0.5-0.9-1-0.9h-2v-2c0-2.8-2.2-5-5-5s-5,2.2-5,5v2h-2c-0.5,0-1,0.4-1,0.9l-1,15
	c0,0.3,0.1,0.5,0.3,0.8c0.2,0.2,0.5,0.3,0.7,0.3h16c0.3,0,0.5-0.1,0.7-0.3c0.2-0.2,0.3-0.5,0.3-0.8L50,457.9z M39,455
	c0-1.7,1.3-3,3-3s3,1.3,3,3v2h-6V455z M35.1,472l0.9-13h1v2c0,0.6,0.4,1,1,1s1-0.4,1-1v-2h6v2c0,0.6,0.4,1,1,1s1-0.4,1-1v-2h1.1
	l0.9,13H35.1z"/>
<path id="shop" class="st3" d="M22,457.9c0-0.5-0.5-0.9-1-0.9h-2v-2c0-2.8-2.2-5-5-5s-5,2.2-5,5v2H7c-0.5,0-1,0.4-1,0.9l-1,15
	c0,0.3,0.1,0.5,0.3,0.8c0.2,0.2,0.5,0.3,0.7,0.3h16c0.3,0,0.5-0.1,0.7-0.3c0.2-0.2,0.3-0.5,0.3-0.8L22,457.9z M11,455
	c0-1.7,1.3-3,3-3s3,1.3,3,3v2h-6V455z M7.1,472L8,459h1v2c0,0.6,0.4,1,1,1s1-0.4,1-1v-2h6v2c0,0.6,0.4,1,1,1s1-0.4,1-1v-2h1.1
	l0.9,13H7.1z"/>
<g id="blog-on_1_">
	<g>
		<path class="st2" d="M51,416c-0.1,0-0.3,0-0.4-0.1L36.8,410h-1.6l-1.8,0.9c-0.3,0.2-0.7,0.1-1,0c-0.3-0.2-0.5-0.5-0.5-0.9v-7
			c0-0.3,0.2-0.7,0.5-0.9s0.7-0.2,1,0l1.8,0.9h1.5l13.8-6.9c0.3-0.2,0.7-0.1,1,0c0.3,0.2,0.5,0.5,0.5,0.9v18c0,0.3-0.2,0.6-0.4,0.8
			C51.4,415.9,51.2,416,51,416z M35,408h2c0.1,0,0.3,0,0.4,0.1l12.6,5.4v-14.9l-12.6,6.3c-0.1,0.1-0.3,0.1-0.4,0.1h-2
			c-0.2,0-0.3,0-0.4-0.1l-0.6-0.3v3.8l0.6-0.3C34.7,408,34.8,408,35,408z"/>
	</g>
	<g>
		<path class="st2" d="M42,417c-0.1,0-0.3,0-0.4-0.1l-6-3c-0.3-0.2-0.6-0.5-0.6-0.9v-3c0-0.6,0.4-1,1-1s1,0.4,1,1v2.4l4.6,2.3
			l1.6-3.1c0.2-0.5,0.8-0.7,1.3-0.4c0.5,0.2,0.7,0.8,0.4,1.3l-2,4C42.7,416.8,42.4,417,42,417z"/>
	</g>
</g>
<g id="blog_3_">
	<g>
		<path class="st3" d="M23,416c-0.1,0-0.3,0-0.4-0.1L8.8,410H7.2l-1.8,0.9c-0.3,0.2-0.7,0.1-1,0C4.2,410.7,4,410.3,4,410v-7
			c0-0.3,0.2-0.7,0.5-0.9s0.7-0.2,1,0l1.8,0.9h1.5l13.8-6.9c0.3-0.2,0.7-0.1,1,0c0.3,0.2,0.5,0.5,0.5,0.9v18c0,0.3-0.2,0.6-0.4,0.8
			C23.4,415.9,23.2,416,23,416z M7,408h2c0.1,0,0.3,0,0.4,0.1l12.6,5.4v-14.9l-12.6,6.3C9.3,405,9.2,405,9,405H7
			c-0.2,0-0.3,0-0.4-0.1L6,404.6v3.8l0.6-0.3C6.7,408,6.8,408,7,408z"/>
	</g>
	<g>
		<path class="st3" d="M14,417c-0.1,0-0.3,0-0.4-0.1l-6-3C7.2,413.7,7,413.4,7,413v-3c0-0.6,0.4-1,1-1s1,0.4,1,1v2.4l4.6,2.3
			l1.6-3.1c0.2-0.5,0.8-0.7,1.3-0.4c0.5,0.2,0.7,0.8,0.4,1.3l-2,4C14.7,416.8,14.4,417,14,417z"/>
	</g>
</g>
<g id="forum-on_1_">
	<g>
		<path class="st2" d="M46,388c-0.1,0-0.3,0-0.4-0.1c-0.4-0.2-0.6-0.5-0.6-0.9v-2h-2c-0.6,0-1-0.4-1-1s0.4-1,1-1h3c0.6,0,1,0.4,1,1
			v0.9l2-1.6c0.2-0.1,0.4-0.2,0.6-0.2H52v-5h-1c-0.6,0-1-0.4-1-1c0-0.6,0.4-1,1-1h2c0.6,0,1,0.4,1,1v7c0,0.6-0.4,1-1,1h-3l-3.3,2.8
			C46.5,387.9,46.2,388,46,388z"/>
	</g>
	<g>
		<path class="st2" d="M39,387c-0.3,0-0.5-0.1-0.7-0.3l-4.7-4.7H31c-0.6,0-1-0.4-1-1v-12c0-0.6,0.4-1,1-1h17c0.6,0,1,0.4,1,1v12
			c0,0.6-0.4,1-1,1h-8v4c0,0.4-0.2,0.8-0.6,0.9C39.3,387,39.1,387,39,387z M32,380h2c0.3,0,0.5,0.1,0.7,0.3l3.3,3.3V381
			c0-0.6,0.4-1,1-1h8v-10H32V380z"/>
	</g>
</g>
<g id="forum_3_">
	<g>
		<path class="st3" d="M18,388c-0.1,0-0.3,0-0.4-0.1c-0.4-0.2-0.6-0.5-0.6-0.9v-2h-2c-0.6,0-1-0.4-1-1s0.4-1,1-1h3c0.6,0,1,0.4,1,1
			v0.9l2-1.6c0.2-0.1,0.4-0.2,0.6-0.2H24v-5h-1c-0.6,0-1-0.4-1-1c0-0.6,0.4-1,1-1h2c0.6,0,1,0.4,1,1v7c0,0.6-0.4,1-1,1h-3l-3.3,2.8
			C18.5,387.9,18.2,388,18,388z"/>
	</g>
	<g>
		<path class="st3" d="M11,387c-0.3,0-0.5-0.1-0.7-0.3L5.6,382H3c-0.6,0-1-0.4-1-1v-12c0-0.6,0.4-1,1-1h17c0.6,0,1,0.4,1,1v12
			c0,0.6-0.4,1-1,1h-8v4c0,0.4-0.2,0.8-0.6,0.9C11.3,387,11.1,387,11,387z M4,380h2c0.3,0,0.5,0.1,0.7,0.3l3.3,3.3V381
			c0-0.6,0.4-1,1-1h8v-10H4V380z"/>
	</g>
</g>
<g id="group-on_1_">
	<g>
		<path class="st2" d="M42,350c-2.8,0-5-2.2-5-5s2.2-5,5-5s5,2.2,5,5S44.8,350,42,350z M42,342c-1.7,0-3,1.3-3,3s1.3,3,3,3
			s3-1.3,3-3S43.7,342,42,342z"/>
	</g>
	<g>
		<path class="st2" d="M42,361c-4.2,0-6.6-2.2-6.7-2.3c-0.2-0.2-0.3-0.5-0.3-0.8c0.1-1.7,0.4-4.7,1.3-5.7s3.9-1.2,5.7-1.3h0.1
			c1.7,0.1,4.7,0.4,5.7,1.3c1,0.9,1.2,3.9,1.3,5.7c0,0.3-0.1,0.6-0.3,0.8C48.6,358.8,46.2,361,42,361z M37,357.5
			c0.7,0.5,2.4,1.5,5,1.5s4.3-1,5-1.5c-0.1-1.8-0.4-3.5-0.7-3.9c-0.3-0.2-2.4-0.6-4.3-0.7c-1.9,0.1-3.9,0.4-4.3,0.7
			C37.5,354,37.2,355.8,37,357.5z"/>
	</g>
	<g>
		<g>
			<path class="st2" d="M36,351c-2.2,0-4-1.8-4-4c0-1.7,1.1-3.2,2.7-3.8c0.5-0.2,1.1,0.1,1.3,0.6s-0.1,1.1-0.6,1.3
				c-0.8,0.3-1.3,1-1.3,1.9c0,1.1,0.9,2,2,2c0.6,0,1,0.4,1,1S36.6,351,36,351z"/>
		</g>
		<g>
			<path class="st2" d="M33,358c-0.1,0-0.1,0-0.2,0c-1.3-0.3-2.3-1.1-2.4-1.2c-0.3-0.2-0.4-0.6-0.3-1c0.3-1.4,0.8-3.9,1.6-4.6
				c0.4-0.4,3.3-2,4.2-2.2c0.5-0.1,1.1,0.3,1.2,0.8s-0.3,1.1-0.8,1.2s-2.8,1.3-3.2,1.7c-0.2,0.2-0.6,1.5-0.9,2.9
				c0.3,0.2,0.7,0.4,1.1,0.5c0.5,0.1,0.9,0.6,0.8,1.2C33.9,357.7,33.5,358,33,358z"/>
		</g>
		<g>
			<path class="st2" d="M48,351c-0.6,0-1-0.4-1-1s0.4-1,1-1c1.1,0,2-0.9,2-2c0-0.8-0.5-1.6-1.3-1.9c-0.5-0.2-0.8-0.8-0.6-1.3
				s0.8-0.8,1.3-0.6c1.6,0.6,2.7,2.1,2.7,3.8C52,349.2,50.2,351,48,351z"/>
		</g>
		<g>
			<path class="st2" d="M51,358c-0.5,0-0.9-0.3-1-0.8s0.2-1.1,0.8-1.2c0.4-0.1,0.8-0.3,1.1-0.5c-0.3-1.4-0.7-2.7-0.9-3
				c-0.4-0.3-2.6-1.5-3.1-1.6s-0.9-0.6-0.8-1.2c0.1-0.5,0.6-0.9,1.1-0.8c0.9,0.2,3.8,1.8,4.2,2.2c0.8,0.8,1.3,3.2,1.6,4.6
				c0.1,0.4-0.1,0.7-0.3,1c-0.1,0.1-1.1,0.9-2.4,1.2C51.1,358,51.1,358,51,358z"/>
		</g>
	</g>
</g>
<g id="group_3_">
	<g>
		<path class="st3" d="M14,350c-2.8,0-5-2.2-5-5s2.2-5,5-5s5,2.2,5,5S16.8,350,14,350z M14,342c-1.7,0-3,1.3-3,3s1.3,3,3,3
			s3-1.3,3-3S15.7,342,14,342z"/>
	</g>
	<g>
		<path class="st3" d="M14,361c-4.2,0-6.6-2.2-6.7-2.3c-0.2-0.2-0.3-0.5-0.3-0.8c0.1-1.7,0.4-4.7,1.3-5.7s3.9-1.2,5.7-1.3h0.1
			c1.7,0.1,4.7,0.4,5.7,1.3c1,0.9,1.2,3.9,1.3,5.7c0,0.3-0.1,0.6-0.3,0.8C20.6,358.8,18.2,361,14,361z M9,357.5
			c0.7,0.5,2.4,1.5,5,1.5s4.3-1,5-1.5c-0.1-1.8-0.4-3.5-0.7-3.9c-0.3-0.2-2.4-0.6-4.3-0.7c-1.9,0.1-3.9,0.4-4.3,0.7
			C9.5,354,9.2,355.8,9,357.5z"/>
	</g>
	<g>
		<g>
			<path class="st3" d="M8,351c-2.2,0-4-1.8-4-4c0-1.7,1.1-3.2,2.7-3.8c0.5-0.2,1.1,0.1,1.3,0.6c0.2,0.5-0.1,1.1-0.6,1.3
				c-0.8,0.3-1.3,1-1.3,1.9c0,1.1,0.9,2,2,2c0.6,0,1,0.4,1,1S8.6,351,8,351z"/>
		</g>
		<g>
			<path class="st3" d="M5,358c-0.1,0-0.1,0-0.2,0c-1.3-0.3-2.3-1.1-2.4-1.2c-0.3-0.2-0.4-0.6-0.3-1c0.3-1.4,0.8-3.9,1.6-4.6
				c0.4-0.4,3.3-2,4.2-2.2c0.5-0.1,1.1,0.3,1.2,0.8s-0.3,1.1-0.8,1.2s-2.8,1.3-3.2,1.7c-0.2,0.2-0.6,1.5-0.9,2.9
				c0.3,0.2,0.7,0.4,1.1,0.5c0.5,0.1,0.9,0.6,0.8,1.2C5.9,357.7,5.5,358,5,358z"/>
		</g>
		<g>
			<path class="st3" d="M20,351c-0.6,0-1-0.4-1-1s0.4-1,1-1c1.1,0,2-0.9,2-2c0-0.8-0.5-1.6-1.3-1.9c-0.5-0.2-0.8-0.8-0.6-1.3
				c0.2-0.5,0.8-0.8,1.3-0.6c1.6,0.6,2.7,2.1,2.7,3.8C24,349.2,22.2,351,20,351z"/>
		</g>
		<g>
			<path class="st3" d="M23,358c-0.5,0-0.9-0.3-1-0.8s0.2-1.1,0.8-1.2c0.4-0.1,0.8-0.3,1.1-0.5c-0.3-1.4-0.7-2.7-0.9-3
				c-0.4-0.3-2.6-1.5-3.1-1.6s-0.9-0.6-0.8-1.2c0.1-0.5,0.6-0.9,1.1-0.8c0.9,0.2,3.8,1.8,4.2,2.2c0.8,0.8,1.3,3.2,1.6,4.6
				c0.1,0.4-0.1,0.7-0.3,1c-0.1,0.1-1.1,0.9-2.4,1.2C23.1,358,23.1,358,23,358z"/>
		</g>
	</g>
</g>
<g id="trade-on_1_">
	<g>
		<path class="st2" d="M34,323c-0.2,0-0.3,0-0.4-0.1c-0.3-0.2-0.6-0.5-0.6-0.9v-5c0-0.3,0.1-0.6,0.4-0.8l4-3
			c0.2-0.1,0.4-0.2,0.6-0.2h5v-2c0-0.4,0.2-0.8,0.6-0.9c0.4-0.2,0.8-0.1,1.1,0.2l9,8c0.3,0.3,0.4,0.7,0.3,1.1s-0.6,0.6-1,0.6H38.3
			l-3.7,2.8C34.4,322.9,34.2,323,34,323z M35,317.5v2.5l2.4-1.8c0.2-0.1,0.4-0.2,0.6-0.2h12.4l-5.4-4.8v0.8c0,0.6-0.4,1-1,1h-5.7
			L35,317.5z"/>
	</g>
	<g>
		<path class="st2" d="M40,334c-0.2,0-0.5-0.1-0.7-0.3l-9-8c-0.3-0.3-0.4-0.7-0.3-1.1c0.1-0.4,0.5-0.6,0.9-0.6h14.7l3.7-2.8
			c0.3-0.2,0.7-0.3,1-0.1c0.3,0.2,0.6,0.5,0.6,0.9v5c0,0.3-0.1,0.6-0.4,0.8l-4,3c-0.2,0.1-0.4,0.2-0.6,0.2h-5v2
			c0,0.4-0.2,0.8-0.6,0.9C40.3,334,40.1,334,40,334z M33.6,326l5.4,4.8V330c0-0.6,0.4-1,1-1h5.7l3.3-2.5V324l-2.4,1.8
			c-0.2,0.1-0.4,0.2-0.6,0.2H33.6z"/>
	</g>
</g>
<g id="trade_3_">
	<g>
		<path class="st3" d="M6,323c-0.2,0-0.3,0-0.4-0.1C5.2,322.7,5,322.4,5,322v-5c0-0.3,0.1-0.6,0.4-0.8l4-3c0.2-0.1,0.4-0.2,0.6-0.2
			h5v-2c0-0.4,0.2-0.8,0.6-0.9c0.4-0.2,0.8-0.1,1.1,0.2l9,8c0.3,0.3,0.4,0.7,0.3,1.1s-0.6,0.6-1,0.6H10.3l-3.7,2.8
			C6.4,322.9,6.2,323,6,323z M7,317.5v2.5l2.4-1.8c0.2-0.1,0.4-0.2,0.6-0.2h12.4l-5.4-4.8v0.8c0,0.6-0.4,1-1,1h-5.7L7,317.5z"/>
	</g>
	<g>
		<path class="st3" d="M12,334c-0.2,0-0.5-0.1-0.7-0.3l-9-8C2,325.4,1.9,325,2,324.6c0.1-0.4,0.6-0.6,1-0.6h14.7l3.7-2.8
			c0.3-0.2,0.7-0.3,1-0.1c0.3,0.2,0.6,0.5,0.6,0.9v5c0,0.3-0.1,0.6-0.4,0.8l-4,3c-0.2,0.1-0.4,0.2-0.6,0.2h-5v2
			c0,0.4-0.2,0.8-0.6,0.9C12.3,334,12.1,334,12,334z M5.6,326l5.4,4.8V330c0-0.6,0.4-1,1-1h5.7l3.3-2.5V324l-2.4,1.8
			c-0.2,0.1-0.4,0.2-0.6,0.2H5.6z"/>
	</g>
</g>
<g id="inventory-on_1_">
	<g>
		<path class="st4" d="M50,306H34c-0.6,0-1-0.4-1-1v-14c0-2.8,2.2-5,5-5h8c2.8,0,5,2.2,5,5v14C51,305.6,50.6,306,50,306z M35,304h14
			v-13c0-1.7-1.3-3-3-3h-8c-1.7,0-3,1.3-3,3V304z"/>
	</g>
	<g>
		<path class="st4" d="M38,299c-0.6,0-1-0.4-1-1v-2c0-0.6,0.4-1,1-1s1,0.4,1,1v2C39,298.6,38.6,299,38,299z"/>
	</g>
	<g>
		<path class="st4" d="M46,299c-0.6,0-1-0.4-1-1v-2c0-0.6,0.4-1,1-1s1,0.4,1,1v2C47,298.6,46.6,299,46,299z"/>
	</g>
	<g>
		<path class="st4" d="M45.5,288c-0.6,0-1-0.4-1-1v-0.5c0-1.4-1.1-2.5-2.5-2.5s-2.5,1.1-2.5,2.5v0.5c0,0.6-0.4,1-1,1s-1-0.4-1-1
			v-0.5c0-2.5,2-4.5,4.5-4.5s4.5,2,4.5,4.5v0.5C46.5,287.6,46.1,288,45.5,288z"/>
	</g>
	<g>
		<path class="st4" d="M44.9,297h-5.8c-2.3,0-4.3-1.3-5.4-3.3l-0.6-1.2l1.8-0.9l0.6,1.2c0.7,1.4,2.1,2.2,3.6,2.2h5.8
			c1.5,0,2.9-0.8,3.6-2.2l0.6-1.2l1.8,0.9l-0.6,1.2C49.3,295.7,47.2,297,44.9,297z"/>
	</g>
</g>
<g id="inventory_1_">
	<g>
		<path class="st3" d="M22,306H6c-0.6,0-1-0.4-1-1v-14c0-2.8,2.2-5,5-5h8c2.8,0,5,2.2,5,5v14C23,305.6,22.6,306,22,306z M7,304h14
			v-13c0-1.7-1.3-3-3-3h-8c-1.7,0-3,1.3-3,3V304z"/>
	</g>
	<g>
		<path class="st3" d="M10,299c-0.6,0-1-0.4-1-1v-2c0-0.6,0.4-1,1-1s1,0.4,1,1v2C11,298.6,10.6,299,10,299z"/>
	</g>
	<g>
		<path class="st3" d="M18,299c-0.6,0-1-0.4-1-1v-2c0-0.6,0.4-1,1-1s1,0.4,1,1v2C19,298.6,18.6,299,18,299z"/>
	</g>
	<g>
		<path class="st3" d="M17.5,288c-0.6,0-1-0.4-1-1v-0.5c0-1.4-1.1-2.5-2.5-2.5s-2.5,1.1-2.5,2.5v0.5c0,0.6-0.4,1-1,1s-1-0.4-1-1
			v-0.5c0-2.5,2-4.5,4.5-4.5s4.5,2,4.5,4.5v0.5C18.5,287.6,18.1,288,17.5,288z"/>
	</g>
	<g>
		<path class="st3" d="M16.9,297h-5.8c-2.3,0-4.3-1.3-5.4-3.3l-0.6-1.2l1.8-0.9l0.6,1.2c0.7,1.4,2.1,2.2,3.6,2.2h5.8
			c1.5,0,2.9-0.8,3.6-2.2l0.6-1.2l1.8,0.9l-0.6,1.2C21.3,295.7,19.2,297,16.9,297z"/>
	</g>
</g>
<g id="character-on">
	<path class="st5" d="M39,262c2.2,0,4-1.8,4-4c0-2.2-1.8-4-4-4s-4,1.8-4,4C35,260.2,36.8,262,39,262z M39,256c1.1,0,2,0.9,2,2
		s-0.9,2-2,2c-1.1,0-2-0.9-2-2S37.9,256,39,256z"/>
	<path class="st5" d="M39.4,270.1c-0.5-0.2-1.1,0-1.3,0.4l-2.7,5.5h-1.2l1.7-7.8c0.1-0.5-0.2-1.1-0.7-1.2l-3.2-0.8V265h10
		c0.6,0,1-0.4,1-1s-0.4-1-1-1H31c-0.6,0-1,0.4-1,1v3c0,0.5,0.3,0.9,0.8,1l3.1,0.8l-1.8,8c-0.1,0.3,0,0.6,0.2,0.8
		c0.2,0.2,0.5,0.4,0.8,0.4h3c0.4,0,0.7-0.2,0.9-0.6l3-6C40.1,271,39.9,270.4,39.4,270.1z"/>
	<path class="st5" d="M53.8,257.4c-0.2-0.3-0.5-0.4-0.8-0.4h-2c-0.3,0-0.6,0.2-0.8,0.4l-7,10c-0.2,0.2-0.2,0.6-0.1,0.9
		c0.1,0.3,0.3,0.5,0.6,0.6l5,2c0.1,0,0.2,0.1,0.4,0.1c0.1,0,0.3,0,0.4-0.1c0.2-0.1,0.4-0.3,0.5-0.6l4-12
		C54.1,258,54,257.7,53.8,257.4z M48.4,268.7l-2.8-1.1l6-8.5h0.1L48.4,268.7z"/>
	<path class="st5" d="M44,270c-2.6,0-3.2,1.9-3.6,3.5c-0.3,0.9-0.6,1.9-1.2,3c-0.2,0.3-0.2,0.7,0,1c0.2,0.3,0.5,0.5,0.9,0.5
		c7,0,8-2.5,8-4C48,271.4,45.7,270,44,270z M41.7,275.9c0.3-0.7,0.5-1.3,0.6-1.9c0.5-1.7,0.7-2.1,1.7-2.1c0.5,0,2,0.5,2,2
		C46,275,44.3,275.7,41.7,275.9z"/>
</g>
<g id="character_1_">
	<path class="st3" d="M11,262c2.2,0,4-1.8,4-4c0-2.2-1.8-4-4-4s-4,1.8-4,4C7,260.2,8.8,262,11,262z M11,256c1.1,0,2,0.9,2,2
		s-0.9,2-2,2s-2-0.9-2-2S9.9,256,11,256z"/>
	<path class="st3" d="M11.4,270.1c-0.5-0.2-1.1,0-1.3,0.4L7.4,276H6.2l1.7-7.8c0.1-0.5-0.2-1.1-0.7-1.2L4,266.2V265h10
		c0.6,0,1-0.4,1-1s-0.4-1-1-1H3c-0.6,0-1,0.4-1,1v3c0,0.5,0.3,0.9,0.8,1l3.1,0.8l-1.8,8c-0.1,0.3,0,0.6,0.2,0.8
		c0.2,0.2,0.5,0.4,0.8,0.4h3c0.4,0,0.7-0.2,0.9-0.6l3-6C12.1,271,11.9,270.4,11.4,270.1z"/>
	<path class="st3" d="M25.8,257.4c-0.2-0.3-0.5-0.4-0.8-0.4h-2c-0.3,0-0.6,0.2-0.8,0.4l-7,10c-0.2,0.2-0.2,0.6-0.1,0.9
		c0.1,0.3,0.3,0.5,0.6,0.6l5,2c0.1,0,0.2,0.1,0.4,0.1c0.1,0,0.3,0,0.4-0.1c0.2-0.1,0.4-0.3,0.5-0.6l4-12
		C26.1,258,26,257.7,25.8,257.4z M20.4,268.7l-2.8-1.1l6-8.5h0.1L20.4,268.7z"/>
	<path class="st3" d="M16,270c-2.6,0-3.2,1.9-3.6,3.5c-0.3,0.9-0.6,1.9-1.2,3c-0.2,0.3-0.2,0.7,0,1s0.5,0.5,0.9,0.5c7,0,8-2.5,8-4
		C20,271.4,17.7,270,16,270z M13.7,275.9c0.3-0.7,0.5-1.3,0.6-1.9c0.5-1.7,0.7-2.1,1.7-2.1c0.5,0,2,0.5,2,2
		C18,275,16.3,275.7,13.7,275.9z"/>
</g>
<g id="friends-on_1_">
	<g>
		<path class="st2" d="M39,238c-3.3,0-6-2.7-6-6s2.7-6,6-6s6,2.7,6,6S42.3,238,39,238z M39,228c-2.2,0-4,1.8-4,4s1.8,4,4,4
			s4-1.8,4-4S41.2,228,39,228z"/>
	</g>
	<g>
		<path class="st2" d="M47,238.6c-0.4,0-0.8-0.2-0.9-0.6c-0.2-0.5,0-1.1,0.5-1.3c1.5-0.6,2.4-2.1,2.4-3.7c0-1.9-1.3-3.5-3.2-3.9
			c-0.5-0.1-0.9-0.6-0.8-1.2c0.1-0.5,0.6-0.9,1.2-0.8c2.8,0.6,4.8,3,4.8,5.9c0,2.4-1.4,4.5-3.6,5.5C47.3,238.6,47.1,238.6,47,238.6z
			"/>
	</g>
	<g>
		<path class="st2" d="M39,250c-5.2,0-8.4-2.1-8.5-2.2c-0.3-0.2-0.5-0.6-0.4-1c0.2-1.2,1.1-5.4,2.3-6.5c1.2-1.2,5.1-1.3,6.7-1.3
			c1.6,0,5.5,0.1,6.7,1.3c1.1,1.1,2,5.3,2.3,6.5c0.1,0.4-0.1,0.8-0.4,1C47.4,247.9,44.2,250,39,250z M32.1,246.5
			c1.1,0.5,3.5,1.5,6.9,1.5s5.8-1,6.9-1.5c-0.5-2.1-1.2-4.3-1.6-4.8c-0.4-0.4-2.9-0.7-5.3-0.7s-4.9,0.3-5.3,0.7
			C33.3,242.1,32.6,244.4,32.1,246.5z"/>
	</g>
	<g>
		<path class="st2" d="M50,249c-0.4,0-0.8-0.3-1-0.7c-0.2-0.5,0.1-1.1,0.7-1.2c1.1-0.3,1.8-1,2.2-1.3c-0.5-2.2-1.2-4.6-1.6-5
			c-0.6-0.6-2.6-2-3.4-2.1c-0.5-0.1-0.9-0.6-0.9-1.1c0.1-0.5,0.5-1,1.1-0.9c1.7,0.2,4.3,2.4,4.6,2.7c1.1,1.1,2,5.3,2.3,6.5
			c0.1,0.3,0,0.6-0.2,0.8c-0.1,0.1-1.3,1.7-3.5,2.4C50.2,249,50.1,249,50,249z"/>
	</g>
</g>
<g id="friends_3_">
	<g>
		<path class="st3" d="M11,238c-3.3,0-6-2.7-6-6s2.7-6,6-6s6,2.7,6,6S14.3,238,11,238z M11,228c-2.2,0-4,1.8-4,4s1.8,4,4,4
			s4-1.8,4-4S13.2,228,11,228z"/>
	</g>
	<g>
		<path class="st3" d="M19,238.6c-0.4,0-0.8-0.2-0.9-0.6c-0.2-0.5,0-1.1,0.5-1.3c1.5-0.6,2.4-2.1,2.4-3.7c0-1.9-1.3-3.5-3.2-3.9
			c-0.5-0.1-0.9-0.6-0.8-1.2c0.1-0.5,0.6-0.9,1.2-0.8c2.8,0.6,4.8,3,4.8,5.9c0,2.4-1.4,4.5-3.6,5.5C19.3,238.6,19.1,238.6,19,238.6z
			"/>
	</g>
	<g>
		<path class="st3" d="M11,250c-5.2,0-8.4-2.1-8.5-2.2c-0.3-0.2-0.5-0.6-0.4-1c0.2-1.2,1.1-5.4,2.3-6.5c1.2-1.2,5.1-1.3,6.7-1.3
			s5.5,0.1,6.7,1.3c1.1,1.1,2,5.3,2.3,6.5c0.1,0.4-0.1,0.8-0.4,1C19.4,247.9,16.2,250,11,250z M4.1,246.5C5.2,247,7.6,248,11,248
			s5.8-1,6.9-1.5c-0.5-2.1-1.2-4.3-1.6-4.8c-0.4-0.4-2.9-0.7-5.3-0.7s-4.9,0.3-5.3,0.7C5.3,242.1,4.6,244.4,4.1,246.5z"/>
	</g>
	<g>
		<path class="st3" d="M22,249c-0.4,0-0.8-0.3-1-0.7c-0.2-0.5,0.1-1.1,0.7-1.2c1.1-0.3,1.8-1,2.2-1.3c-0.5-2.2-1.2-4.6-1.6-5
			c-0.6-0.6-2.6-2-3.4-2.1c-0.5-0.1-0.9-0.6-0.9-1.1c0.1-0.5,0.5-1,1.1-0.9c1.7,0.2,4.3,2.4,4.6,2.7c1.1,1.1,2,5.3,2.3,6.5
			c0.1,0.3,0,0.6-0.2,0.8c-0.1,0.1-1.3,1.7-3.5,2.4C22.2,249,22.1,249,22,249z"/>
	</g>
</g>
<g id="message-on_1_">
	<g>
		<path class="st2" d="M42,221c-0.3,0-0.5-0.1-0.7-0.3l-3.7-3.7H31c-0.6,0-1-0.4-1-1v-16c0-0.6,0.4-1,1-1h22c0.6,0,1,0.4,1,1v16
			c0,0.6-0.4,1-1,1h-6.6l-3.7,3.7C42.5,220.9,42.3,221,42,221z M32,215h6c0.3,0,0.5,0.1,0.7,0.3l3.3,3.3l3.3-3.3
			c0.2-0.2,0.4-0.3,0.7-0.3h6v-14H32V215z"/>
	</g>
	<g>
		<path class="st2" d="M48,207H36c-0.6,0-1-0.4-1-1s0.4-1,1-1h12c0.6,0,1,0.4,1,1S48.6,207,48,207z"/>
	</g>
	<g>
		<path class="st2" d="M48,211H36c-0.6,0-1-0.4-1-1s0.4-1,1-1h12c0.6,0,1,0.4,1,1S48.6,211,48,211z"/>
	</g>
</g>
<g id="message_3_">
	<g>
		<path class="st3" d="M14,221c-0.3,0-0.5-0.1-0.7-0.3L9.6,217H3c-0.6,0-1-0.4-1-1v-16c0-0.6,0.4-1,1-1h22c0.6,0,1,0.4,1,1v16
			c0,0.6-0.4,1-1,1h-6.6l-3.7,3.7C14.5,220.9,14.3,221,14,221z M4,215h6c0.3,0,0.5,0.1,0.7,0.3l3.3,3.3l3.3-3.3
			c0.2-0.2,0.4-0.3,0.7-0.3h6v-14H4V215z"/>
	</g>
	<g>
		<path class="st3" d="M20,207H8c-0.6,0-1-0.4-1-1s0.4-1,1-1h12c0.6,0,1,0.4,1,1S20.6,207,20,207z"/>
	</g>
	<g>
		<path class="st3" d="M20,211H8c-0.6,0-1-0.4-1-1s0.4-1,1-1h12c0.6,0,1,0.4,1,1S20.6,211,20,211z"/>
	</g>
</g>
<g id="profile-on_1_">
	<g>
		<path class="st5" d="M42,182c-3.3,0-6-2.7-6-6s2.7-6,6-6s6,2.7,6,6S45.3,182,42,182z M42,172c-2.2,0-4,1.8-4,4s1.8,4,4,4
			s4-1.8,4-4S44.2,172,42,172z"/>
	</g>
	<g>
		<path class="st5" d="M42,194c-5.2,0-8.4-2.1-8.5-2.2c-0.3-0.2-0.5-0.6-0.4-1c0.2-1.2,1.1-5.4,2.3-6.5c1.2-1.2,5.1-1.3,6.7-1.3
			c1.6,0,5.5,0.1,6.7,1.3c1.1,1.1,2,5.3,2.3,6.5c0.1,0.4-0.1,0.8-0.4,1C50.4,191.9,47.2,194,42,194z M35.1,190.5
			c1.1,0.5,3.5,1.5,6.9,1.5s5.8-1,6.9-1.5c-0.5-2.1-1.2-4.3-1.6-4.8c-0.4-0.4-2.9-0.7-5.3-0.7s-4.9,0.3-5.3,0.7
			C36.3,186.1,35.6,188.4,35.1,190.5z"/>
	</g>
</g>
<g id="profile_3_">
	<g>
		<path class="st3" d="M14,182c-3.3,0-6-2.7-6-6s2.7-6,6-6s6,2.7,6,6S17.3,182,14,182z M14,172c-2.2,0-4,1.8-4,4s1.8,4,4,4
			s4-1.8,4-4S16.2,172,14,172z"/>
	</g>
	<g>
		<path class="st3" d="M14,194c-5.2,0-8.4-2.1-8.5-2.2c-0.3-0.2-0.5-0.6-0.4-1c0.2-1.2,1.1-5.4,2.3-6.5c1.2-1.2,5.1-1.3,6.7-1.3
			s5.5,0.1,6.7,1.3c1.1,1.1,2,5.3,2.3,6.5c0.1,0.4-0.1,0.8-0.4,1C22.4,191.9,19.2,194,14,194z M7.1,190.5c1.1,0.5,3.5,1.5,6.9,1.5
			s5.8-1,6.9-1.5c-0.5-2.1-1.2-4.3-1.6-4.8c-0.4-0.4-2.9-0.7-5.3-0.7s-4.9,0.3-5.3,0.7C8.3,186.1,7.6,188.4,7.1,190.5z"/>
	</g>
</g>
<g id="home-on_1_">
	<path class="st4" d="M51,165h-7c-0.6,0-1-0.4-1-1v-6h-2v6c0,0.6-0.4,1-1,1h-7c-0.6,0-1-0.4-1-1v-9h-1c-0.4,0-0.8-0.3-0.9-0.6
		c-0.1-0.4,0-0.8,0.3-1.1l11-10c0.4-0.3,1-0.3,1.3,0l11,10c0.3,0.3,0.4,0.7,0.3,1.1c-0.1,0.4-0.5,0.6-0.9,0.6h-1v9
		C52,164.6,51.6,165,51,165z M45,163h5v-9c0-0.4,0.2-0.7,0.5-0.9l-8.5-7.8l-8.5,7.8c0.3,0.2,0.5,0.5,0.5,0.9v9h5v-6c0-0.6,0.4-1,1-1
		h4c0.6,0,1,0.4,1,1V163z"/>
</g>
<g id="home_1_">
	<path class="st3" d="M23,165h-7c-0.6,0-1-0.4-1-1v-6h-2v6c0,0.6-0.4,1-1,1H5c-0.6,0-1-0.4-1-1v-9H3c-0.4,0-0.8-0.3-0.9-0.6
		c-0.1-0.4,0-0.8,0.3-1.1l11-10c0.4-0.3,1-0.3,1.3,0l11,10c0.3,0.3,0.4,0.7,0.3,1.1c-0.1,0.4-0.5,0.6-0.9,0.6h-1v9
		C24,164.6,23.6,165,23,165z M17,163h5v-9c0-0.4,0.2-0.7,0.5-0.9l-8.5-7.8l-8.5,7.8c0.3,0.2,0.5,0.5,0.5,0.9v9h5v-6c0-0.6,0.4-1,1-1
		h4c0.6,0,1,0.4,1,1V163z"/>
</g>
<g id="settings-on_1_">
	<path class="st0" d="M53,96h-1.2c-0.3-1.3-0.8-2.5-1.5-3.5l0.9-0.9c0.4-0.4,0.4-1,0-1.4l-1.4-1.4c-0.4-0.4-1-0.4-1.4,0l-0.9,0.9
		c-1-0.7-2.2-1.2-3.5-1.5V87c0-0.6-0.4-1-1-1h-2c-0.6,0-1,0.4-1,1v1.2c-1.3,0.3-2.5,0.8-3.5,1.5l-0.9-0.9c-0.4-0.4-1-0.4-1.4,0
		l-1.4,1.4c-0.4,0.4-0.4,1,0,1.4l0.9,0.9c-0.7,1-1.2,2.2-1.5,3.5H31c-0.6,0-1,0.4-1,1v2c0,0.6,0.4,1,1,1h1.2
		c0.3,1.3,0.8,2.5,1.5,3.5l-0.9,0.9c-0.4,0.4-0.4,1,0,1.4l1.4,1.4c0.4,0.4,1,0.4,1.4,0l0.9-0.9c1,0.7,2.2,1.2,3.5,1.5v1.2
		c0,0.6,0.4,1,1,1h2c0.6,0,1-0.4,1-1v-1.2c1.3-0.3,2.5-0.8,3.5-1.5l0.9,0.9c0.4,0.4,1,0.4,1.4,0l1.4-1.4c0.4-0.4,0.4-1,0-1.4
		l-0.9-0.9c0.7-1,1.2-2.2,1.5-3.5H53c0.6,0,1-0.4,1-1v-2C54,96.4,53.6,96,53,96z M42,104c-3.3,0-6-2.7-6-6s2.7-6,6-6s6,2.7,6,6
		S45.3,104,42,104z"/>
</g>
<g id="settings_1_">
	<g>
		<path class="st0" d="M16,110h-4c-0.6,0-1-0.4-1-1v-1.5c-0.6-0.2-1.1-0.4-1.6-0.7l-0.9,0.9c-0.4,0.4-1,0.4-1.4,0L4.2,105
			c-0.4-0.4-0.4-1,0-1.4l0.9-0.9c-0.3-0.5-0.5-1.1-0.7-1.6H3c-0.6,0-1-0.4-1-1v-4c0-0.6,0.4-1,1-1h1.5c0.2-0.6,0.4-1.1,0.7-1.6
			l-0.9-0.9c-0.4-0.4-0.4-1,0-1.4l2.7-3c0.2-0.2,0.4-0.3,0.7-0.3l0,0c0.3,0,0.5,0.1,0.7,0.3l0.9,0.9c0.5-0.3,1.1-0.5,1.6-0.7V87
			c0-0.6,0.4-1,1-1h4c0.6,0,1,0.4,1,1v1.5c0.6,0.2,1.1,0.4,1.6,0.7l0.9-0.9c0.4-0.4,1-0.4,1.4,0l2.8,2.8c0.4,0.4,0.4,1,0,1.4
			l-0.9,0.9c0.3,0.5,0.5,1.1,0.7,1.6H25c0.6,0,1,0.4,1,1v4c0,0.6-0.4,1-1,1h-1.5c-0.2,0.6-0.4,1.1-0.7,1.6l0.9,0.9
			c0.4,0.4,0.4,1,0,1.4l-2.8,2.8c-0.2,0.2-0.4,0.3-0.7,0.3l0,0c-0.3,0-0.5-0.1-0.7-0.3l-0.9-0.9c-0.5,0.3-1.1,0.5-1.6,0.7v1.5
			C17,109.6,16.6,110,16,110z M13,108h2v-1.2c0-0.5,0.3-0.9,0.8-1c0.9-0.2,1.7-0.5,2.5-1c0.4-0.2,0.9-0.2,1.2,0.1l0.8,0.8l1.4-1.4
			l-0.8-0.8c-0.3-0.3-0.4-0.8-0.1-1.2c0.5-0.8,0.8-1.6,1-2.5c0.1-0.5,0.5-0.8,1-0.8H24v-2h-1.2c-0.5,0-0.9-0.3-1-0.8
			c-0.2-0.9-0.5-1.7-1-2.5c-0.2-0.4-0.2-0.9,0.1-1.2l0.8-0.8l-1.4-1.4l-0.8,0.8c-0.3,0.3-0.8,0.4-1.2,0.1c-0.8-0.5-1.6-0.8-2.5-1
			c-0.5-0.1-0.8-0.5-0.8-1V88h-2v1.2c0,0.5-0.3,0.9-0.8,1c-0.9,0.2-1.7,0.5-2.5,1c-0.4,0.2-0.9,0.2-1.2-0.1l-0.8-0.8l-1.4,1.4
			l0.8,0.8c0.3,0.3,0.4,0.8,0.1,1.2c-0.5,0.8-0.8,1.6-1,2.5c-0.1,0.5-0.5,0.8-1,0.8H4v2h1.2c0.5,0,0.9,0.3,1,0.8
			c0.2,0.9,0.5,1.7,1,2.5c0.2,0.4,0.2,0.9-0.1,1.2l-0.8,0.8l1.4,1.4l0.8-0.8c0.3-0.3,0.8-0.4,1.2-0.1c0.8,0.5,1.6,0.8,2.5,1
			c0.5,0.1,0.8,0.5,0.8,1V108z"/>
	</g>
	<g>
		<path class="st0" d="M14,104c-3.3,0-6-2.7-6-6s2.7-6,6-6s6,2.7,6,6S17.3,104,14,104z M14,94c-2.2,0-4,1.8-4,4s1.8,4,4,4s4-1.8,4-4
			S16.2,94,14,94z"/>
	</g>
</g>
<g id="tix-on_1_">
	<path class="st0" d="M51,65h-2l-2-2v-2l-3-3L30,72l3,3h2l2,2v2l3,3l14-14L51,65z M44.7,72.7C44.5,72.9,44.3,73,44,73
		s-0.5-0.1-0.7-0.3L40,69.4l-1.3,1.3C38.5,70.9,38.3,71,38,71s-0.5-0.1-0.7-0.3c-0.4-0.4-0.4-1,0-1.4l4-4c0.4-0.4,1-0.4,1.4,0
		s0.4,1,0,1.4L41.4,68l3.3,3.3C45.1,71.7,45.1,72.3,44.7,72.7z"/>
</g>
<g id="tix_2_">
	<g>
		<path class="st0" d="M12,82c-0.3,0-0.5-0.1-0.7-0.3l-3-3C8.1,78.5,8,78.3,8,78v-1.6L7.6,76H6c-0.3,0-0.5-0.1-0.7-0.3l-3-3
			c-0.4-0.4-0.4-1,0-1.4l13-13c0.4-0.4,1-0.4,1.4,0l3,3c0.2,0.2,0.3,0.4,0.3,0.7v1.6l0.4,0.4H22c0.3,0,0.5,0.1,0.7,0.3l3,3
			c0.4,0.4,0.4,1,0,1.4l-13,13C12.5,81.9,12.3,82,12,82z M10,77.6l2,2L23.6,68l-2-2H20c-0.3,0-0.5-0.1-0.7-0.3l-1-1
			C18.1,64.5,18,64.3,18,64v-1.6l-2-2L4.4,72l2,2H8c0.3,0,0.5,0.1,0.7,0.3l1,1C9.9,75.5,10,75.7,10,76V77.6z"/>
	</g>
	<g>
		<path class="st0" d="M10,71c-0.3,0-0.5-0.1-0.7-0.3c-0.4-0.4-0.4-1,0-1.4l4-4c0.4-0.4,1-0.4,1.4,0s0.4,1,0,1.4l-4,4
			C10.5,70.9,10.3,71,10,71z"/>
	</g>
	<g>
		<path class="st0" d="M16,73c-0.3,0-0.5-0.1-0.7-0.3l-4-4c-0.4-0.4-0.4-1,0-1.4s1-0.4,1.4,0l4,4c0.4,0.4,0.4,1,0,1.4
			C16.5,72.9,16.3,73,16,73z"/>
	</g>
</g>
<g id="robux-on_1_">
	<path class="st0" d="M37,39v2h2.6c0.1-0.5,0.1-1.5,0-2H37z"/>
	<path class="st0" d="M42,30c-6.6,0-12,5.4-12,12s5.4,12,12,12s12-5.4,12-12S48.6,30,42,30z M47,47v1c0,0.6-0.4,1-1,1s-1-0.4-1-1v-1
		h-3c-0.2,0-0.4-0.1-0.6-0.2L37,43.3V46c0,0.6-0.4,1-1,1s-1-0.4-1-1v-8c0-0.6,0.4-1,1-1h4c1.1,0,1.7,1.1,1.7,3
		c0,0.6-0.1,1.2-0.2,1.7C41.1,42.9,40.3,43,40,43h-0.1l2.5,2H47c0.3,0,0.5-0.5,0.5-1c0-0.4-0.1-1-0.5-1h-2c-1.4,0-2.5-1.3-2.5-3
		c0-0.7,0.2-1.4,0.5-1.9c0.5-0.7,1.2-1.1,2-1.1v-1c0-0.6,0.4-1,1-1s1,0.4,1,1v1h1c0.6,0,1,0.4,1,1s-0.4,1-1,1h-3
		c-0.1,0-0.2,0-0.3,0.2s-0.2,0.5-0.2,0.8c0,0.4,0.2,1,0.5,1h2c1.4,0,2.5,1.3,2.5,3S48.4,47,47,47z"/>
</g>
<g id="robux_2_">
	<g>
		<path class="st0" d="M14,54C7.4,54,2,48.6,2,42s5.4-12,12-12s12,5.4,12,12S20.6,54,14,54z M14,32C8.5,32,4,36.5,4,42s4.5,10,10,10
			s10-4.5,10-10S19.5,32,14,32z"/>
	</g>
	<g>
		<g>
			<path class="st0" d="M19,47h-5c-0.2,0-0.4-0.1-0.6-0.2L9,43.3V46c0,0.6-0.4,1-1,1s-1-0.4-1-1v-8c0-0.6,0.4-1,1-1h4
				c1.1,0,1.7,1.1,1.7,3c0,0.6-0.1,1.2-0.2,1.7C13.1,42.9,12.3,43,12,43h-0.1l2.5,2H19c0.3,0,0.5-0.5,0.5-1c0-0.4-0.1-1-0.5-1h-2
				c-1.4,0-2.5-1.3-2.5-3c0-0.7,0.2-1.4,0.5-1.9c0.5-0.7,1.2-1.1,2-1.1h3c0.6,0,1,0.4,1,1s-0.4,1-1,1h-3c-0.1,0-0.2,0-0.3,0.2
				c-0.1,0.2-0.2,0.5-0.2,0.8c0,0.4,0.2,1,0.5,1h2c1.4,0,2.5,1.3,2.5,3S20.4,47,19,47z M9,41h2.6c0.1-0.5,0.1-1.5,0-2H9V41z"/>
		</g>
		<g>
			<path class="st0" d="M18,38c-0.6,0-1-0.4-1-1v-1c0-0.6,0.4-1,1-1s1,0.4,1,1v1C19,37.6,18.6,38,18,38z"/>
		</g>
		<g>
			<path class="st0" d="M18,49c-0.6,0-1-0.4-1-1v-1c0-0.6,0.4-1,1-1s1,0.4,1,1v1C19,48.6,18.6,49,18,49z"/>
		</g>
	</g>
</g>
<g id="menu-on_1_">
	<g>
		<path class="st0" d="M50,10H34c-0.6,0-1-0.4-1-1s0.4-1,1-1h16c0.6,0,1,0.4,1,1S50.6,10,50,10z"/>
	</g>
	<g>
		<path class="st0" d="M50,15H34c-0.6,0-1-0.4-1-1s0.4-1,1-1h16c0.6,0,1,0.4,1,1S50.6,15,50,15z"/>
	</g>
	<g>
		<path class="st0" d="M50,20H34c-0.6,0-1-0.4-1-1s0.4-1,1-1h16c0.6,0,1,0.4,1,1S50.6,20,50,20z"/>
	</g>
</g>
<g id="menu_2_">
	<g>
		<path class="st0" d="M22,10H6c-0.6,0-1-0.4-1-1s0.4-1,1-1h16c0.6,0,1,0.4,1,1S22.6,10,22,10z"/>
	</g>
	<g>
		<path class="st0" d="M22,15H6c-0.6,0-1-0.4-1-1s0.4-1,1-1h16c0.6,0,1,0.4,1,1S22.6,15,22,15z"/>
	</g>
	<g>
		<path class="st0" d="M22,20H6c-0.6,0-1-0.4-1-1s0.4-1,1-1h16c0.6,0,1,0.4,1,1S22.6,20,22,20z"/>
	</g>
</g>
<g id="search_1_">
	<g>
		<path class="st3" d="M12,133c-5,0-9-4-9-9s4-9,9-9s9,4,9,9S17,133,12,133z M12,117c-3.9,0-7,3.1-7,7s3.1,7,7,7s7-3.1,7-7
			S15.9,117,12,117z"/>
	</g>
	<g>
		<path class="st3" d="M24,137c-0.3,0-0.5-0.1-0.7-0.3l-6-6c-0.4-0.4-0.4-1,0-1.4c0.4-0.4,1-0.4,1.4,0l6,6c0.4,0.4,0.4,1,0,1.4
			C24.5,136.9,24.3,137,24,137z"/>
	</g>
	<g>
		<path class="st3" d="M16,125c-0.6,0-1-0.4-1-1c0-1.7-1.3-3-3-3c-0.6,0-1-0.4-1-1s0.4-1,1-1c2.8,0,5,2.2,5,5
			C17,124.6,16.6,125,16,125z"/>
	</g>
</g>
<g id="search_2_">
	<g>
		<path class="st2" d="M40,133c-5,0-9-4-9-9s4-9,9-9s9,4,9,9S45,133,40,133z M40,117c-3.9,0-7,3.1-7,7s3.1,7,7,7s7-3.1,7-7
			S43.9,117,40,117z"/>
	</g>
	<g>
		<path class="st2" d="M52,137c-0.3,0-0.5-0.1-0.7-0.3l-6-6c-0.4-0.4-0.4-1,0-1.4c0.4-0.4,1-0.4,1.4,0l6,6c0.4,0.4,0.4,1,0,1.4
			C52.5,136.9,52.3,137,52,137z"/>
	</g>
	<g>
		<path class="st2" d="M44,125c-0.6,0-1-0.4-1-1c0-1.7-1.3-3-3-3c-0.6,0-1-0.4-1-1s0.4-1,1-1c2.8,0,5,2.2,5,5
			C45,124.6,44.6,125,44,125z"/>
	</g>
</g>
<g id="search_4_">
	<g>
		<path class="st0" d="M12,441c-5,0-9-4-9-9s4-9,9-9s9,4,9,9S17,441,12,441z M12,425c-3.9,0-7,3.1-7,7s3.1,7,7,7s7-3.1,7-7
			S15.9,425,12,425z"/>
	</g>
	<g>
		<path class="st0" d="M24,445c-0.3,0-0.5-0.1-0.7-0.3l-6-6c-0.4-0.4-0.4-1,0-1.4c0.4-0.4,1-0.4,1.4,0l6,6c0.4,0.4,0.4,1,0,1.4
			C24.5,444.9,24.3,445,24,445z"/>
	</g>
	<g>
		<path class="st0" d="M16,433c-0.6,0-1-0.4-1-1c0-1.7-1.3-3-3-3c-0.6,0-1-0.4-1-1s0.4-1,1-1c2.8,0,5,2.2,5,5
			C17,432.6,16.6,433,16,433z"/>
	</g>
</g>
<g id="search_3_">
	<g>
		<path class="st2" d="M40,441c-5,0-9-4-9-9s4-9,9-9s9,4,9,9S45,441,40,441z M40,425c-3.9,0-7,3.1-7,7s3.1,7,7,7s7-3.1,7-7
			S43.9,425,40,425z"/>
	</g>
	<g>
		<path class="st2" d="M52,445c-0.3,0-0.5-0.1-0.7-0.3l-6-6c-0.4-0.4-0.4-1,0-1.4c0.4-0.4,1-0.4,1.4,0l6,6c0.4,0.4,0.4,1,0,1.4
			C52.5,444.9,52.3,445,52,445z"/>
	</g>
	<g>
		<path class="st2" d="M44,433c-0.6,0-1-0.4-1-1c0-1.7-1.3-3-3-3c-0.6,0-1-0.4-1-1s0.4-1,1-1c2.8,0,5,2.2,5,5
			C45,432.6,44.6,433,44,433z"/>
	</g>
</g>
</svg>
