<?xml version="1.0" encoding="utf-8"?>
<!-- Generator: Adobe Illustrator 24.0.3, SVG Export Plug-In . SVG Version: 6.00 Build 0)  -->
<svg version="1.1" id="Layer_1" xmlns="http://www.w3.org/2000/svg" xmlns:xlink="http://www.w3.org/1999/xlink" x="0px" y="0px"
	 width="20px" height="60px" viewBox="0 0 20 60" style="enable-background:new 0 0 20 60;" xml:space="preserve" preserveAspectRatio="none">
<style type="text/css">
	.st0{fill:#FFFFFF;}
</style>
<path id="owned" class="st0" d="M14,48v-3c0-1.7-1.3-3-3-3H9c-1.7,0-3,1.3-3,3v3c-1.2,0-2.4,0.1-3.5,0.2c0,2.8,0.4,5.6,1.1,8.5
	c0.2,0.7,0.8,1.2,1.5,1.3c3.3,0.1,6.6,0.1,10,0c0.7,0,1.3-0.6,1.5-1.3c0.7-2.9,1.1-5.7,1.1-8.5C16.4,48.1,15.2,48,14,48z M7,45
	c0-1.1,0.9-2,2-2h2c1.1,0,2,0.9,2,2v3c-2-0.1-4-0.1-6,0V45z M13.7,51.7L9,56.4l-2.7-2.7c-0.4-0.4-0.4-1,0-1.4s1-0.4,1.4,0L9,53.6
	l3.3-3.3c0.4-0.4,1-0.4,1.4,0S14.1,51.3,13.7,51.7z"/>
<g id="item_x2F_limited">
	<path class="st0" d="M14.7,13.5c-0.4,0.4-0.8,0.8-1.1,1.3c0.5,0.2,1,0.6,1.4,1h0c0.1,0.1,0.2,0.2,0.4,0.2c0.3,0,0.5-0.2,0.5-0.5
		c0-0.1-0.1-0.3-0.2-0.4C15.3,14.5,15,14,14.7,13.5z"/>
	<path class="st0" d="M14.7,6.5C15,6,15.3,5.4,15.7,5c0.1-0.1,0.2-0.2,0.2-0.4c0-0.3-0.2-0.5-0.5-0.5c-0.1,0-0.3,0.1-0.4,0.2h0
		c-0.4,0.4-0.9,0.7-1.4,0.9C13.9,5.7,14.3,6.2,14.7,6.5z"/>
	<path class="st0" d="M5.3,6.5c0.4-0.4,0.8-0.8,1.1-1.3C5.9,5,5.4,4.7,5,4.3h0C4.9,4.2,4.8,4.1,4.6,4.1c-0.3,0-0.5,0.2-0.5,0.5
		c0,0.1,0.1,0.3,0.2,0.4C4.7,5.5,5,6,5.3,6.5z"/>
	<path class="st0" d="M5.3,13.5C5,14,4.7,14.6,4.3,15c-0.1,0.1-0.2,0.2-0.2,0.4c0,0.3,0.2,0.5,0.5,0.5c0.1,0,0.3-0.1,0.4-0.2h0
		c0.4-0.4,0.9-0.7,1.4-0.9C6.1,14.3,5.7,13.8,5.3,13.5z"/>
	<path class="st0" d="M16,9.5c-2.7,0-5.5-4-5.5-7C10.5,2.2,10.3,2,10,2S9.5,2.2,9.5,2.5c0,3-2.8,7-5.5,7c-0.3,0-0.5,0.2-0.5,0.5
		s0.2,0.5,0.5,0.5c2.7,0,5.5,4,5.5,7c0,0.3,0.2,0.5,0.5,0.5s0.5-0.2,0.5-0.5c0-3,2.8-7,5.5-7c0.3,0,0.5-0.2,0.5-0.5S16.3,9.5,16,9.5
		z"/>
</g>
<g id="item_x2F_bundle">
	<path class="st0" d="M14,32v-8c0-1.1-0.9-2-2-2H4c-1.1,0-2,0.9-2,2v8c0,1.1,0.9,2,2,2h8C13.1,34,14,33.1,14,32z"/>
	<path class="st0" d="M16,26h-1v6c0,1.7-1.3,3-3,3H6v1c0,1.1,0.9,2,2,2h8c1.1,0,2-0.9,2-2v-8C18,26.9,17.1,26,16,26z"/>
</g>
</svg>
