<?xml version="1.0" encoding="utf-8"?>
<!-- Generator: Adobe Illustrator 18.0.0, SVG Export Plug-In . SVG Version: 6.00 Build 0)  -->
<!DOCTYPE svg PUBLIC "-//W3C//DTD SVG 1.1//EN" "http://www.w3.org/Graphics/SVG/1.1/DTD/svg11.dtd">
<svg version="1.1" xmlns="http://www.w3.org/2000/svg" xmlns:xlink="http://www.w3.org/1999/xlink" x="0px" y="0px" width="36px"
	 height="108px" viewBox="0 0 36 108" enable-background="new 0 0 36 108" xml:space="preserve">
<g id="label">
</g>
<g id="BC">
</g>
<g id="brand">
</g>
<g id="generic">
</g>
<g id="negative">
</g>
<g id="creation">
</g>
<g id="games">
</g>
<g id="Social_and_Interaction">
</g>
<g id="Navigation">
</g>
<g id="Friends_Status">
	<g id="Available">
		<circle fill="#00A2FF" cx="18" cy="90" r="16"/>
		<g>
			
				<circle fill="none" stroke="#FFFFFF" stroke-width="2" stroke-linecap="round" stroke-linejoin="round" stroke-miterlimit="10" cx="18" cy="84" r="5"/>
			<path fill="none" stroke="#FFFFFF" stroke-width="2" stroke-linecap="round" stroke-linejoin="round" stroke-miterlimit="10" d="
				M18,92c0,0,5,0,6,1s2,6,2,6s-3.1,2-8,2s-8-2-8-2s1-5,2-6S18,92,18,92z"/>
		</g>
	</g>
	<g id="InStudio">
		<circle fill="#F68802" cx="18" cy="54" r="16"/>
		
			<polygon fill="none" stroke="#FFFFFF" stroke-width="2" stroke-linecap="round" stroke-linejoin="round" stroke-miterlimit="10" points="
			26,54 21,54 18,51 18,46 16,44 11,44 14,47 14,50 11,50 8,47 8,52 10,54 15,54 18,57 18,62 20,64 25,64 22,61 22,58 25,58 28,61 
			28,56 		"/>
	</g>
	<g id="InGame">
		<circle fill="#02B757" cx="18" cy="18" r="16"/>
		<g>
			
				<polygon fill="none" stroke="#FFFFFF" stroke-width="2" stroke-linecap="round" stroke-linejoin="round" stroke-miterlimit="10" points="
				24.2,11 12,11 7,14 7,25 11,25 16,23 20,23 25,25 29,25 29,14 			"/>
			
				<line fill="none" stroke="#FFFFFF" stroke-width="2" stroke-linecap="round" stroke-linejoin="round" stroke-miterlimit="10" x1="11" y1="18" x2="15" y2="18"/>
			
				<line fill="none" stroke="#FFFFFF" stroke-width="2" stroke-linecap="round" stroke-linejoin="round" stroke-miterlimit="10" x1="13" y1="16" x2="13" y2="20"/>
			<g>
				<path fill="#FFFFFF" d="M22,15c-0.8,0-1.5,0.7-1.5,1.5S21.2,18,22,18s1.5-0.7,1.5-1.5S22.8,15,22,15L22,15z"/>
			</g>
			<g>
				<path fill="#FFFFFF" d="M25,18c-0.8,0-1.5,0.7-1.5,1.5S24.2,21,25,21s1.5-0.7,1.5-1.5S25.8,18,25,18L25,18z"/>
			</g>
		</g>
	</g>
</g>
</svg>
