<?xml version="1.0" encoding="utf-8"?>
<!-- Generator: Adobe Illustrator 21.1.0, SVG Export Plug-In . SVG Version: 6.00 Build 0)  -->
<!DOCTYPE svg PUBLIC "-//W3C//DTD SVG 1.1//EN" "http://www.w3.org/Graphics/SVG/1.1/DTD/svg11.dtd">
<svg version="1.1" id="placeholder" xmlns="http://www.w3.org/2000/svg" xmlns:xlink="http://www.w3.org/1999/xlink" x="0px"
	 y="0px" width="150px" height="450px" viewBox="0 0 150 450" style="enable-background:new 0 0 150 450;" xml:space="preserve" preserveAspectRatio="none">
<style type="text/css">
	.st0{fill:#F2F2F2;}
	.st1{fill:#CCCCCC;}
</style>
<g id="avatar_portrait">
	<rect y="300" class="st0" width="150" height="150"/>
	<g>
		<path class="st1" d="M63.5,374.7c3,0.5,7.1,0.8,11.3,0.8c4.3,0,8.3-0.3,11.3-0.8c2.9-0.5,6-1.3,6-3.6V342c0-2.2-3-3-6-3.6
			c-3-0.5-7.1-0.8-11.3-0.8c-4.3,0-8.3,0.3-11.3,0.8c-2.9,0.5-6,1.3-6,3.6v29.1C57.5,373.4,60.5,374.2,63.5,374.7z M60.8,342.6
			c1.3-0.6,6.1-1.6,14-1.6s12.6,1,14,1.6v28c-1.3,0.6-6.1,1.6-14,1.6s-12.6-1-14-1.6C60.8,370.6,60.8,342.6,60.8,342.6z"/>
		<path class="st1" d="M112.1,407.7l0.1-0.1c0,0,0-0.1,0.1-0.1c0,0,0-0.1,0.1-0.1c0,0,0-0.1,0-0.2s0-0.1,0-0.2s0-0.1,0-0.2
			s0-0.1,0-0.2v-0.1c0-0.1,0-0.1,0-0.2l0,0v-0.1v-0.1l-6.8-16.5c-2-5.3-6.9-9.1-12.5-9.5c-6.4-0.5-12.5-0.8-18-0.8s-11.6,0.3-18,0.8
			c-5.7,0.5-10.6,4.2-12.5,9.5l-7,16.4v0.1v0.1l0,0c0,0.1,0,0.1,0,0.2v0.1c0,0.1,0,0.1,0,0.2s0,0.1,0,0.2s0,0.1,0,0.2s0,0.1,0,0.2
			s0,0.1,0.1,0.1c0,0,0,0.1,0.1,0.1l0.1,0.1l0.1,0.1l0.1,0.1l0.1,0.1l0.1,0.1c0.1,0,0.1,0.1,0.2,0.1l0,0h0.1h0.1
			c0.2,0,16.7,4.2,36.2,4.2s36.1-4.2,36.2-4.2h0.1h0.1l0,0c0.1,0,0.1-0.1,0.2-0.1l0.1-0.1l0.1-0.1l0.1-0.1
			C112.1,407.8,112.1,407.7,112.1,407.7z M57.2,408.1V395c0-0.9-0.7-1.7-1.7-1.7s-1.7,0.7-1.7,1.7v12.7c-5.7-0.8-10.1-1.7-12.4-2.2
			l6.1-14.7c0,0,0,0,0-0.1c1.5-4.1,5.3-7,9.7-7.4c6.2-0.5,12.4-0.8,17.7-0.8s11.5,0.3,17.7,0.8c4.4,0.4,8.2,3.3,9.7,7.4
			c0,0,0,0,0,0.1l6.1,14.7c-2.3,0.5-6.7,1.4-12.4,2.2V395c0-0.9-0.7-1.7-1.7-1.7s-1.7,0.7-1.7,1.7v13.1c-5.3,0.6-11.3,1.1-17.8,1.1
			S62.5,408.7,57.2,408.1z"/>
	</g>
</g>
<g id="image">
	<g>
		<rect y="150" class="st0" width="150" height="150"/>
	</g>
	<g>
		<path class="st1" d="M110.8,195.8H39.2c-0.9,0-1.7,0.7-1.7,1.7v55c0,0.9,0.7,1.7,1.7,1.7h71.7c0.9,0,1.7-0.7,1.7-1.7v-55
			C112.5,196.6,111.8,195.8,110.8,195.8z M109.2,250.8H40.8v-51.7h68.3L109.2,250.8L109.2,250.8z"/>
		<path class="st1" d="M58.5,223.5c4.4,0,7.9-3.6,7.9-7.9s-3.6-7.9-7.9-7.9s-7.9,3.6-7.9,7.9S54.1,223.5,58.5,223.5z M58.5,211
			c2.5,0,4.6,2.1,4.6,4.6s-2.1,4.6-4.6,4.6s-4.6-2.1-4.6-4.6S55.9,211,58.5,211z"/>
		<path class="st1" d="M65.8,224.9L57.2,240c-0.3,0.5-0.3,1.1,0,1.7c0.3,0.5,0.8,0.8,1.4,0.8h39.1c0.6,0,1.1-0.3,1.4-0.8
			s0.3-1.1,0-1.7l-7.2-12.5l0,0l-7-12.5c-0.3-0.5-0.8-0.8-1.4-0.8l0,0c-0.6,0-1.1,0.3-1.4,0.8l-9.5,16.5l-3.8-6.6
			c-0.3-0.5-0.8-0.8-1.4-0.8l0,0C66.6,224.1,66.1,224.4,65.8,224.9z M67.2,229.1l3.8,6.6c0.3,0.5,0.8,0.8,1.4,0.8l0,0
			c0.6,0,1.1-0.3,1.4-0.8l9.5-16.5l5.7,10l5.7,10H61.5L67.2,229.1z"/>
	</g>
</g>
<g id="game">
	<rect class="st0" width="150" height="150"/>
	<g>
		<path class="st1" d="M111.8,60.9l-15-9.5c-0.3-0.1-0.7-0.2-1-0.2H55c-0.3,0-0.6,0.1-0.9,0.2l-15.8,9.5c-0.5,0.3-0.8,0.8-0.8,1.4
			v34.9c0,0.9,0.8,1.7,1.7,1.7h11.7c0.2,0,0.4,0,0.6-0.1L68,92.2c0.2-0.1,0.4-0.1,0.6-0.1h13c0.2,0,0.4,0,0.6,0.1l16.5,6.6
			c0.2,0.1,0.4,0.1,0.6,0.1H111c0.9,0,1.7-0.8,1.7-1.7V62.3C112.5,61.7,112.3,61.2,111.8,60.9z M109.1,95.6h-9.7l-16.2-6.5
			c-0.6-0.2-1.2-0.4-1.9-0.4h-13c-0.6,0-1.2,0.1-1.9,0.4l-16.2,6.5h-9.6V63.3l14.6-8.8h39.9l13.8,8.8v32.3H109.1z"/>
		<path class="st1" d="M64.8,73.4h-5.2v-5.2c0-0.9-0.7-1.7-1.7-1.7s-1.7,0.7-1.7,1.7v5.2H51c-0.9,0-1.7,0.7-1.7,1.7s0.7,1.7,1.7,1.7
			h5.2V82c0,0.9,0.7,1.7,1.7,1.7s1.7-0.7,1.7-1.7v-5.2h5.2c0.9,0,1.7-0.7,1.7-1.7S65.7,73.4,64.8,73.4z"/>
		<circle class="st1" cx="87.9" cy="70.9" r="4.2"/>
		<circle class="st1" cx="96.2" cy="79.2" r="4.2"/>
	</g>
</g>
</svg>
